<svg class="animated" id="freepik_stories-christmas-angel" xmlns="http://www.w3.org/2000/svg" viewBox="0 0 500 500" version="1.1" xmlns:xlink="http://www.w3.org/1999/xlink" xmlns:svgjs="http://svgjs.com/svgjs"><style>svg#freepik_stories-christmas-angel:not(.animated) .animable {opacity: 0;}svg#freepik_stories-christmas-angel.animated #freepik--background-complete--inject-6 {animation: 1.5s Infinite  linear spin;animation-delay: 0s;}svg#freepik_stories-christmas-angel.animated #freepik--Character--inject-6 {animation: 1.5s Infinite  linear floating;animation-delay: 0s;}         @keyframes spin {             from {                 transform: rotate(0);               }               to {                 transform: rotate(360deg);               }         }                 @keyframes floating {                0% {                    opacity: 1;                    transform: translateY(0px);                }                50% {                    transform: translateY(-10px);                }                100% {                    opacity: 1;                    transform: translateY(0px);                }            }        .animator-hidden { display: none; }</style><g id="freepik--background-complete--inject-6" class="animable animator-hidden" style="transform-origin: 241.235px 242.403px;"><path d="M88.45,385.89l3.41,1.29-3,.84a3.09,3.09,0,0,0-2.1,2l-1.07,3.28L84.41,390a3.07,3.07,0,0,0-1.81-1.75l-3-1.09,3.25-1.34a3.1,3.1,0,0,0,1.71-1.75l1.17-3,.84,2.83A3.09,3.09,0,0,0,88.45,385.89Z" style="fill: rgb(224, 224, 224); transform-origin: 85.73px 387.185px;" id="elwkelv6rl9m" class="animable"></path><path d="M374.37,75.71,377.79,77l-3,.84a3.09,3.09,0,0,0-2.09,2l-1.07,3.28-1.32-3.29a3.11,3.11,0,0,0-1.82-1.75l-3-1.09,3.25-1.33a3.1,3.1,0,0,0,1.71-1.75l1.18-3,.84,2.83A3.09,3.09,0,0,0,374.37,75.71Z" style="fill: rgb(224, 224, 224); transform-origin: 371.64px 77.015px;" id="elz7rqfbrg9tb" class="animable"></path><path d="M386.84,329.58l3.42,1.29-3,.84a3.07,3.07,0,0,0-2.09,2L384.12,337l-1.31-3.29A3.08,3.08,0,0,0,381,332l-3-1.09,3.25-1.34a3,3,0,0,0,1.71-1.75l1.17-3,.85,2.84A3.07,3.07,0,0,0,386.84,329.58Z" style="fill: rgb(224, 224, 224); transform-origin: 384.13px 330.91px;" id="elr7moq49q9sl" class="animable"></path><path d="M107.25,355.61l1.71.64-1.48.42a1.54,1.54,0,0,0-1,1l-.54,1.64-.66-1.65a1.54,1.54,0,0,0-.9-.87l-1.5-.55,1.62-.67a1.53,1.53,0,0,0,.86-.87l.58-1.52.43,1.41A1.51,1.51,0,0,0,107.25,355.61Z" style="fill: rgb(224, 224, 224); transform-origin: 105.92px 356.245px;" id="elfsnsoqj825" class="animable"></path><path d="M172.52,348.08l1.71.64-1.48.42a1.54,1.54,0,0,0-1.05,1l-.54,1.64-.65-1.65a1.58,1.58,0,0,0-.91-.88l-1.5-.54,1.62-.67a1.5,1.5,0,0,0,.86-.87l.58-1.53.43,1.42A1.51,1.51,0,0,0,172.52,348.08Z" style="fill: rgb(224, 224, 224); transform-origin: 171.165px 348.71px;" id="eljm5ruz964kr" class="animable"></path><path d="M408.46,300.4l1.71.64-1.48.42a1.54,1.54,0,0,0-1.05,1l-.53,1.64-.66-1.64a1.58,1.58,0,0,0-.91-.88L404,301l1.62-.66a1.52,1.52,0,0,0,.86-.88l.59-1.52.42,1.42A1.52,1.52,0,0,0,408.46,300.4Z" style="fill: rgb(224, 224, 224); transform-origin: 407.085px 301.02px;" id="eloyd886lgdhj" class="animable"></path><path d="M170.23,125.88l1.7.64-1.48.42a1.56,1.56,0,0,0-1,1l-.53,1.64-.66-1.64a1.58,1.58,0,0,0-.91-.88l-1.5-.55,1.63-.66a1.53,1.53,0,0,0,.85-.88l.59-1.52.42,1.42A1.54,1.54,0,0,0,170.23,125.88Z" style="fill: rgb(224, 224, 224); transform-origin: 168.89px 126.515px;" id="el6jgkzu8vld" class="animable"></path><path d="M57.58,70.22l1.7.64-1.48.42a1.56,1.56,0,0,0-1,1l-.53,1.64-.66-1.65a1.55,1.55,0,0,0-.91-.88l-1.5-.54,1.63-.67a1.55,1.55,0,0,0,.85-.87l.59-1.53.42,1.42A1.55,1.55,0,0,0,57.58,70.22Z" style="fill: rgb(224, 224, 224); transform-origin: 56.24px 70.85px;" id="eljeovba4yl7c" class="animable"></path><path d="M197.87,83.33c.63-4.55-5.81-8.3-10.64-8.69-2.3-.19-4.7.17-6.88-.6-4.73-1.64-6.62-7.76-11.24-9.7-3.45-1.46-7.42-.16-10.77,1.52s-6.65,3.8-10.38,4c-3.26.21-6.79-1-9.63.59-2.12,1.19-3.23,3.63-5.18,5.07s-4.41,1.71-6.78,1.84-4.83.15-7,1.14-3.94,3.27-3.49,5.6Z" style="fill: rgb(245, 245, 245); transform-origin: 156.861px 73.9034px;" id="eliyg5dq5bsk" class="animable"></path><path d="M126.52,131.57c.44-3.2-4.07-5.83-7.46-6.1-1.61-.13-3.29.12-4.82-.42-3.32-1.15-4.64-5.44-7.88-6.8-2.42-1-5.2-.11-7.55,1.07s-4.66,2.66-7.28,2.83c-2.28.15-4.75-.7-6.75.42-1.48.82-2.26,2.54-3.63,3.55a8.74,8.74,0,0,1-4.75,1.29,13.27,13.27,0,0,0-4.9.8c-1.51.69-2.76,2.29-2.45,3.92Z" style="fill: rgb(250, 250, 250); transform-origin: 97.7762px 124.974px;" id="elfpzu7izj5c4" class="animable"></path><path d="M85.7,241.36c.44-3.2-4.07-5.83-7.46-6.1-1.61-.13-3.29.12-4.82-.42-3.32-1.15-4.64-5.44-7.88-6.8-2.42-1-5.2-.11-7.55,1.07s-4.66,2.66-7.28,2.83c-2.28.15-4.75-.7-6.75.41-1.48.83-2.26,2.55-3.63,3.56a8.73,8.73,0,0,1-4.75,1.28,13.48,13.48,0,0,0-4.9.8c-1.51.7-2.76,2.3-2.45,3.93Z" style="fill: rgb(250, 250, 250); transform-origin: 56.9562px 234.764px;" id="elwy9l0227lz" class="animable"></path><path d="M194.07,420.53c.44-3.19-4.07-5.82-7.46-6.09-1.62-.13-3.29.11-4.83-.42-3.31-1.15-4.64-5.44-7.87-6.8-2.42-1-5.21-.12-7.55,1.06s-4.66,2.67-7.28,2.84c-2.28.14-4.76-.7-6.75.41-1.49.83-2.27,2.54-3.64,3.55a8.63,8.63,0,0,1-4.75,1.29,13.39,13.39,0,0,0-4.89.8c-1.52.7-2.77,2.3-2.45,3.93Z" style="fill: rgb(245, 245, 245); transform-origin: 165.325px 413.942px;" id="elq2q17eumjw" class="animable"></path><path d="M454.24,258.8c.7-5-6.4-9.17-11.74-9.6-2.55-.2-5.19.19-7.6-.65-5.22-1.82-7.31-8.57-12.41-10.72-3.81-1.61-8.19-.18-11.89,1.68s-7.34,4.2-11.47,4.46c-3.59.23-7.49-1.1-10.63.66-2.34,1.3-3.56,4-5.72,5.59s-4.86,1.89-7.48,2-5.33.17-7.71,1.26-4.36,3.61-3.87,6.19Z" style="fill: rgb(235, 235, 235); transform-origin: 408.966px 248.401px;" id="eldiku33eapg" class="animable"></path><path d="M147.2,309.08c.8-5.8-7.38-10.57-13.53-11.07-2.93-.23-6,.22-8.76-.75-6-2.1-8.42-9.87-14.29-12.35-4.39-1.85-9.44-.2-13.7,1.94S88.46,291.69,83.7,292c-4.13.26-8.62-1.27-12.24.75-2.7,1.51-4.11,4.61-6.6,6.45s-5.6,2.17-8.62,2.33-6.14.2-8.88,1.46-5,4.16-4.45,7.13Z" style="fill: rgb(245, 245, 245); transform-origin: 95.0407px 297.114px;" id="elr4cldmb24zp" class="animable"></path></g><g id="freepik--Character--inject-6" class="animable animator-active" style="transform-origin: 247.745px 247.352px;"><path d="M261.49,201.46q9.36-36.6,18.71-73.18a5,5,0,0,1,4.37,5q2.64-10.71,5.3-21.4l4.47,6.23a105.52,105.52,0,0,1,3.85-32.21l2.68,3.44a226.54,226.54,0,0,0,3.69-77.44c9,7.26,14,18.47,16.08,29.83s1.36,23,.67,34.52c7.39-14.44,9.49-31.53,11.95-46.59,9.24,8.48,14.61,26.93,12,39.19s-4.48,24.92-11.1,35.57c3.06-1.66,6.26-3.37,9.74-3.48s7.29,1.88,8,5.28c1.37,6.3-7.86,10.54-8,17,1.89-2.48,6.3-.82,7.36,2.12s-.08,6.16-1.25,9c-7.16,17.69-15.84,34.89-27.5,50s-26.44,28.08-43.84,35.92" style="fill: rgb(235, 235, 235); transform-origin: 306.764px 116.08px;" id="ellfcly5nxf8o" class="animable"></path><path d="M171.52,197.21l67.14,13.24-23,40.06s-40.83-.17-47-6.53-7.79-32-7.79-32Z" style="fill: rgb(126, 87, 194); transform-origin: 199.765px 223.86px;" id="eluvr06g7nc7p" class="animable"></path><g id="el0blisy4g8mth"><g style="opacity: 0.3; transform-origin: 168.594px 221.36px;" class="animable"><path d="M161.87,212a265.56,265.56,0,0,0,4.88,28.71c3.21-2.17,4.53-6.19,5.44-10a111.7,111.7,0,0,0,3.12-27.56,1.26,1.26,0,0,0-.33-1,1.22,1.22,0,0,0-1-.06,17,17,0,0,0-12.1,9.87" id="elzohkefnwmy" class="animable" style="transform-origin: 168.594px 221.36px;"></path></g></g><path d="M118.11,180.06s18.8,16.61,21.1,19.27,19.9,13.93,35.42,16.55c0,0,1.59-10.33,1.72-16,0,0-16.27-9.38-29.89-13.62S127,173.92,127,173.92Z" style="fill: rgb(255, 190, 157); transform-origin: 147.23px 194.9px;" id="ell6miu0of4ej" class="animable"></path><path d="M176.22,198.48a11.3,11.3,0,0,1,0,1.75c0,1.12-.08,2.75-.2,4.75a137.14,137.14,0,0,1-1.93,15.59,139.39,139.39,0,0,1-3.7,15.26c-.59,1.92-1.1,3.46-1.49,4.52a12.19,12.19,0,0,1-.64,1.62,9.52,9.52,0,0,1,.45-1.69c.32-1.07.78-2.63,1.33-4.56,1.08-3.85,2.44-9.23,3.54-15.25S175.34,209,175.68,205c.17-2,.29-3.61.37-4.73A10,10,0,0,1,176.22,198.48Z" style="fill: rgb(38, 50, 56); transform-origin: 172.257px 220.225px;" id="elmra64khx58" class="animable"></path><path d="M190.93,236a8.46,8.46,0,0,1-.62,2.35,17.73,17.73,0,0,1-2.87,5.13,14.63,14.63,0,0,1-4.54,3.74,7.15,7.15,0,0,1-2.27.87c0-.08.82-.44,2.09-1.19a17.06,17.06,0,0,0,4.32-3.74,21.45,21.45,0,0,0,2.93-4.94A17.45,17.45,0,0,1,190.93,236Z" style="fill: rgb(38, 50, 56); transform-origin: 185.78px 242.045px;" id="eldaj86lsk8bi" class="animable"></path><g id="eljcz1n81o30t"><g style="opacity: 0.3; transform-origin: 196.736px 222.915px;" class="animable"><path d="M180.21,199.27a184.27,184.27,0,0,0-.27,26.06c.27,4.49.81,9.24,3.54,12.81,3.19,4.17,8.68,5.83,13.89,6.47s11.39.26,16.37,1.95a9.56,9.56,0,0,0-2-7.58c-1.89-2.13-4.54-3.39-7-4.86a42.85,42.85,0,0,1-18.38-22.87c-1.45-4.32-2.5-9.3-6.31-11.79" id="el5cp628npu96" class="animable" style="transform-origin: 196.736px 222.915px;"></path></g></g><path d="M234.59,140.93a5.73,5.73,0,0,0-5.83-1.8,10.82,10.82,0,0,0-5.34,3.44c-1.47,1.58-2.68,3.37-4.09,5-3,3.4-7,6.37-7.8,10.79-.71,3.75,1.09,7.46,1.83,11.21.87,4.37.27,8.88.24,13.35s.64,9.21,3.55,12.59a14.93,14.93,0,0,0,9,4.63,37.52,37.52,0,0,0,10.26-.07,4.07,4.07,0,0,0,2.55-.91,4.15,4.15,0,0,0,.84-2.46,293.53,293.53,0,0,1,10.5-51Z" style="fill: rgb(38, 50, 56); transform-origin: 230.834px 169.696px;" id="el6unq2m8b5uk" class="animable"></path><path d="M258.71,154.11l.2-3.93L235.42,145c-7.26-1-15.36,6.06-16,13.35-.76,8.11-1.38,18-.6,24.13,1.55,12.24,10.85,14.08,10.85,14.08l-.33,14.9,26.91-1Z" style="fill: rgb(255, 190, 157); transform-origin: 238.685px 178.182px;" id="elxm3jmowt30q" class="animable"></path><path d="M222.41,167.36a1.57,1.57,0,0,0,1.46,1.62,1.5,1.5,0,0,0,1.66-1.36,1.57,1.57,0,0,0-1.46-1.62A1.49,1.49,0,0,0,222.41,167.36Z" style="fill: rgb(38, 50, 56); transform-origin: 223.97px 167.489px;" id="ela43fbs4okii" class="animable"></path><path d="M221.79,164.44c.18.21,1.39-.63,3.08-.57s2.88.93,3.07.73-.09-.46-.62-.87a4.3,4.3,0,0,0-2.45-.84,4.09,4.09,0,0,0-2.46.71C221.88,164,221.69,164.34,221.79,164.44Z" style="fill: rgb(38, 50, 56); transform-origin: 224.882px 163.758px;" id="elr16h08ciqpg" class="animable"></path><path d="M237.56,167.36A1.56,1.56,0,0,0,239,169a1.49,1.49,0,0,0,1.65-1.36,1.56,1.56,0,0,0-1.45-1.62A1.49,1.49,0,0,0,237.56,167.36Z" style="fill: rgb(38, 50, 56); transform-origin: 239.104px 167.51px;" id="el1204nfx6oipk" class="animable"></path><path d="M238.31,164.4c.18.2,1.4-.63,3.08-.58s2.88.94,3.07.74-.09-.46-.62-.87a4.16,4.16,0,0,0-2.45-.84,4.09,4.09,0,0,0-2.46.71C238.4,163.94,238.21,164.3,238.31,164.4Z" style="fill: rgb(38, 50, 56); transform-origin: 241.402px 163.718px;" id="elwyb0w5uwdrq" class="animable"></path><path d="M231.82,176.68a10.88,10.88,0,0,0-2.72-.58c-.43-.06-.83-.16-.9-.45a2.23,2.23,0,0,1,.33-1.26c.44-1,.89-2.11,1.37-3.24,1.91-4.6,3.31-8.39,3.12-8.46s-1.88,3.59-3.79,8.19l-1.32,3.26a2.5,2.5,0,0,0-.28,1.67,1.08,1.08,0,0,0,.69.65,2.68,2.68,0,0,0,.73.13A11.6,11.6,0,0,0,231.82,176.68Z" style="fill: rgb(38, 50, 56); transform-origin: 230.314px 169.707px;" id="elo90qkiwpwn" class="animable"></path><path d="M229.62,196.55a32.21,32.21,0,0,0,16.87-3.85s-4.38,8.4-17,6.89Z" style="fill: rgb(235, 153, 110); transform-origin: 237.99px 196.236px;" id="el4hpau35o8cd" class="animable"></path><path d="M230.62,180c.87-.49,1.2-.36,2.12.17a2.74,2.74,0,0,1,1.35,1.7,1.76,1.76,0,0,1-.67,1.89,2.05,2.05,0,0,1-2.25-.37,3.68,3.68,0,0,1-1.19-1.53,2.84,2.84,0,0,1-.15-1.16c0-.23.62-.8.81-.9" style="fill: rgb(235, 153, 110); transform-origin: 231.986px 181.819px;" id="el61lje0ssyeb" class="animable"></path><path d="M237.56,159.42c.15.46,1.84.3,3.81.6s3.54.88,3.82.48c.12-.19-.15-.63-.78-1.09a6.26,6.26,0,0,0-2.8-1.09,6.49,6.49,0,0,0-3,.26C237.87,158.85,237.5,159.2,237.56,159.42Z" style="fill: rgb(38, 50, 56); transform-origin: 241.386px 159.443px;" id="elfmj8qr0gtn" class="animable"></path><path d="M222,159.91c.28.39,1.45,0,2.84.05s2.57.34,2.85-.05c.13-.19-.05-.58-.55-1a4.16,4.16,0,0,0-4.59,0C222.06,159.33,221.89,159.72,222,159.91Z" style="fill: rgb(38, 50, 56); transform-origin: 224.849px 159.165px;" id="elp792cjqeose" class="animable"></path><path d="M233,144.78c.76-3.16,3-6.45,6.16-7.19,4.07-1,7,.53,10.08,1.59s6.09,3.44,9.33,3.1c2.48-.27,4.92-1.35,7.38-.93,3.28.56,5.48,3.55,7.9,5.85a23.1,23.1,0,0,0,22.6,5.08,4.39,4.39,0,0,1-2.44,5.88,14.26,14.26,0,0,0,9.91-1.28,21.3,21.3,0,0,1-14,21.57c-2.05.68-4.32,1.11-5.82,2.66s-1.87,3.94-2.79,5.94c-2.19,4.8-7.51,7.27-12.51,8.95a24.67,24.67,0,0,1-8.91,1.68,9.94,9.94,0,0,1-7.85-3.94c-4.14-6.18,2.13-15.44-1.88-21.7-1.68-2.62-4.8-4-6.62-6.52-1.67-2.33-2-5.34-2.16-8.2s-.11-5.82-1.21-8.47a7.27,7.27,0,0,0-7.13-4.07" style="fill: rgb(38, 50, 56); transform-origin: 268.488px 167.473px;" id="elzt8oy4drz2" class="animable"></path><path d="M303.82,158.46a12.53,12.53,0,0,1-1.27,3.25,17.88,17.88,0,0,1-6.59,6.8,18.47,18.47,0,0,1-9.85,2.69,20.3,20.3,0,0,1-3.89-.49,22.07,22.07,0,0,1-13.78-10,41.75,41.75,0,0,0-2.44-3.79,7,7,0,0,0-3.32-2.56,9.45,9.45,0,0,0-4.1-.2,33.36,33.36,0,0,1-4.08.41,8.4,8.4,0,0,1-2-.27,6.29,6.29,0,0,1-1.78-.88,8.84,8.84,0,0,1-2.4-2.84c-1.18-2.09-1.9-4.18-3-5.84a6.15,6.15,0,0,0-4.13-3,8.37,8.37,0,0,0-4,.4,23.38,23.38,0,0,0-2.4,1,6.11,6.11,0,0,1-.83.35,1.25,1.25,0,0,1,.19-.12c.13-.08.33-.19.59-.32a18.79,18.79,0,0,1,2.38-1.05,8.53,8.53,0,0,1,4.08-.5,6.51,6.51,0,0,1,4.39,3.12c1.14,1.7,1.89,3.8,3.05,5.82a8.46,8.46,0,0,0,2.3,2.69,6,6,0,0,0,1.64.8,8.27,8.27,0,0,0,1.88.24,34.11,34.11,0,0,0,4-.42,9.76,9.76,0,0,1,4.32.2,7.63,7.63,0,0,1,3.57,2.73,43.84,43.84,0,0,1,2.47,3.83,21.72,21.72,0,0,0,13.45,9.8,18.44,18.44,0,0,0,20-8.64A28.6,28.6,0,0,0,303.82,158.46Z" style="fill: rgb(69, 90, 100); transform-origin: 268.89px 156.319px;" id="elx612vl6919s" class="animable"></path><path d="M296.58,173.07a4.17,4.17,0,0,1-.7.47c-.47.29-1.17.7-2.1,1.2a34.86,34.86,0,0,1-8.24,3.3,21.64,21.64,0,0,1-6.13.63,17.41,17.41,0,0,1-6.86-1.75,13.26,13.26,0,0,1-5.74-5.27c-1.36-2.36-2-5.2-3.9-7.26a6,6,0,0,0-3.56-1.77,19.49,19.49,0,0,0-4,.06,18.64,18.64,0,0,1-4,0,6.61,6.61,0,0,1-3.56-1.54,11.89,11.89,0,0,1-3.4-6.19,58.37,58.37,0,0,0-1.57-5.89,9.56,9.56,0,0,0-2.7-4.11,5.83,5.83,0,0,0-3.42-1.33,4.58,4.58,0,0,0-2.29.47c-.48.26-.7.46-.71.44a2.72,2.72,0,0,1,.66-.53,4.43,4.43,0,0,1,2.35-.58,5.8,5.8,0,0,1,3.59,1.31,9.77,9.77,0,0,1,2.87,4.19,58.19,58.19,0,0,1,1.64,5.92,11.47,11.47,0,0,0,3.29,5.93,6.23,6.23,0,0,0,3.32,1.42,17.64,17.64,0,0,0,3.9-.07,19.87,19.87,0,0,1,4.16-.06,6.45,6.45,0,0,1,3.87,1.92,13.21,13.21,0,0,1,2.24,3.67c.58,1.27,1.07,2.55,1.73,3.7a12.81,12.81,0,0,0,5.51,5.1,17.26,17.26,0,0,0,6.66,1.74,21.41,21.41,0,0,0,6-.56,37,37,0,0,0,8.24-3.12l2.14-1.11A6.37,6.37,0,0,1,296.58,173.07Z" style="fill: rgb(69, 90, 100); transform-origin: 265.14px 161.053px;" id="elaa99355ry9s" class="animable"></path><path d="M233.39,183.92c-.06,0,.24-.38.37-1a2.29,2.29,0,0,0-2.93-2.78c-.63.17-.94.48-1,.42s.18-.47.88-.77a2.55,2.55,0,0,1,3.41,3.23C233.86,183.72,233.42,184,233.39,183.92Z" style="fill: rgb(38, 50, 56); transform-origin: 232.051px 181.755px;" id="elu7zjtzhlo7" class="animable"></path><path d="M215,173.61a5.78,5.78,0,0,0,.25-2,7,7,0,0,0-.56-2.27,15,15,0,0,0-1.56-2.71,22.2,22.2,0,0,1-2-3.29,8.66,8.66,0,0,1-.76-4.4,9.19,9.19,0,0,1,1.73-4.64,19.79,19.79,0,0,1,4-3.49,8.07,8.07,0,0,0,3.13-3.88c.49-1.56.46-3.26,1.14-4.75a6.91,6.91,0,0,1,3.09-3.24,7.92,7.92,0,0,1,3.78-.94,9.69,9.69,0,0,1,5.28,1.77,10.13,10.13,0,0,1,1.18,1c.25.25.37.38.35.4s-.54-.49-1.64-1.19a9.85,9.85,0,0,0-5.17-1.57,7.62,7.62,0,0,0-3.58,1,6.56,6.56,0,0,0-2.85,3c-.62,1.37-.59,3-1.09,4.71a8.58,8.58,0,0,1-3.3,4.14,19.44,19.44,0,0,0-3.87,3.39,8.7,8.7,0,0,0-1.66,4.37,8.31,8.31,0,0,0,.67,4.19,25.08,25.08,0,0,0,2,3.26,14.34,14.34,0,0,1,1.53,2.81,7,7,0,0,1,.5,2.37,4.26,4.26,0,0,1-.23,1.51A1.5,1.5,0,0,1,215,173.61Z" style="fill: rgb(38, 50, 56); transform-origin: 222.194px 155.805px;" id="el2cpfxhoceak" class="animable"></path><path d="M254.83,183.36c-.06,0,0-.7-.06-1.94a11.8,11.8,0,0,0-1.61-5,11.3,11.3,0,0,0-5.79-4.92,14.73,14.73,0,0,1-4.2-2.16,7.19,7.19,0,0,1-2.25-4.55,16.33,16.33,0,0,1,.25-5.06c.28-1.6.61-3.12.75-4.58a12,12,0,0,0-.25-4.11A6.81,6.81,0,0,0,240,148a12.36,12.36,0,0,0-4.51-2.61,18.87,18.87,0,0,1-1.82-.68,1.85,1.85,0,0,1,.49.1c.32.08.8.2,1.4.39a12,12,0,0,1,4.7,2.54,7.14,7.14,0,0,1,1.88,3.23,12.25,12.25,0,0,1,.3,4.27c-.22,3-1.38,6.17-1,9.53A6.7,6.7,0,0,0,243.5,169a14.34,14.34,0,0,0,4.05,2.1,11.64,11.64,0,0,1,5.93,5.18A11.51,11.51,0,0,1,255,181.4a8.63,8.63,0,0,1-.05,1.46A3.43,3.43,0,0,1,254.83,183.36Z" style="fill: rgb(38, 50, 56); transform-origin: 244.34px 164.035px;" id="elp6ddcz8pybn" class="animable"></path><path d="M376.94,411.24l22.88,10.89,14.12,18a2.68,2.68,0,0,0,3.9,0h0a2.66,2.66,0,0,0,.66-2.35c-1.12-5.38-5.34-25.17-7-26-2-1-22.65-15.58-22.65-15.58Z" style="fill: rgb(255, 190, 157); transform-origin: 397.747px 418.586px;" id="el1z6vlimsb0i" class="animable"></path><path d="M297.12,436.93,311.23,458l2.95,22.7a2.67,2.67,0,0,0,3.35,2h0A2.67,2.67,0,0,0,319.3,481c1.78-5.2,8.26-24.36,7.25-26-1.16-1.88-11.52-25-11.52-25Z" style="fill: rgb(255, 190, 157); transform-origin: 311.888px 456.402px;" id="el0dqwn7l3lcw" class="animable"></path><path d="M450.07,109.26a71,71,0,0,1-20.4,4.51c22.6-13.93,36.95-40.29,36.39-66.82a563.3,563.3,0,0,1-126,92.46c-7.43,4-15.17,8-20.62,14.45-4.29,5.07-6.87,11.33-9.95,17.23a108.7,108.7,0,0,1-34.83,39.25l5.69,41.47c11.87,3.86,52-10.23,62.88-16.29s17.63-19.29,29-24.44c2.92-1.32,6-2.47,8.42-4.57a10.08,10.08,0,0,0,3-9.41,50.7,50.7,0,0,1,11.21,0c3.7.31,7.35-.2,11.06-.35,5.17-.2,7.08-2.81,7.31-6.52s-3.83-6.83-7.47-6.9l20.39-3.87c2.76-.52,5.8-1.2,6.85-4.34a6.31,6.31,0,0,0-2.39-6.95c-4.23-3.2-9.48-2.13-14.28-1l39.27-16.8a4,4,0,0,0,2.38-4.54c-.68-2.67-3.85-2.66-6.29-2.3l-26.31,3.89a66,66,0,0,0,33-28.24A6.85,6.85,0,0,0,450.07,109.26Z" style="fill: rgb(245, 245, 245); transform-origin: 370.368px 149.71px;" id="elgpe6dblt69o" class="animable"></path><path d="M450.07,109.26l1-.31c.34-.08.77-.12,1.27-.18a8,8,0,0,1,1.78.19,6.85,6.85,0,0,1,4.05,2.81,6.63,6.63,0,0,1,.68,6.61,63.49,63.49,0,0,1-11.69,15.16,67.37,67.37,0,0,1-9.46,7.63,65.33,65.33,0,0,1-12.23,6.31l-.08-.27,17.53-2.62,9.52-1.4a10.54,10.54,0,0,1,2.51,0,4.19,4.19,0,0,1,2.37,1,3.74,3.74,0,0,1,.14,4.9,4.87,4.87,0,0,1-2.16,1.54l-2.41,1-4.91,2.1-10.11,4.34-21.42,9.17-.13-.38a41.9,41.9,0,0,1,6-1,13.38,13.38,0,0,1,6.18.82,9.82,9.82,0,0,1,2.74,1.68A7.16,7.16,0,0,1,433.1,171a5.87,5.87,0,0,1-1.14,6.24,7.17,7.17,0,0,1-2.89,1.69,25.82,25.82,0,0,1-3.24.76L419.26,181l-13.43,2.56,0-.45a8.57,8.57,0,0,1,5,1.9,6.55,6.55,0,0,1,2.65,4.75,7.23,7.23,0,0,1-1.85,5.2,8,8,0,0,1-5.22,2c-3.71.15-7.45.67-11.29.4a51.83,51.83,0,0,0-11.41,0l.2-.31a10,10,0,0,1-1.08,7.13,9,9,0,0,1-2.37,2.85,19,19,0,0,1-3.1,2c-2.17,1.17-4.52,2-6.65,3.15a36.24,36.24,0,0,0-6,4.23c-3.77,3.24-7.1,7-10.66,10.67s-7.43,7.18-12.14,9.48a149.07,149.07,0,0,1-14.47,6.07q-7.41,2.73-15.11,5c-5.13,1.5-10.35,2.88-15.68,3.88a75.47,75.47,0,0,1-8.1,1.11,23.3,23.3,0,0,1-8.22-.55l-.16,0,0-.17c-.72-5.27-1.5-10.94-2.28-16.64-1.16-8.39-2.3-16.72-3.41-24.84l0-.16.13-.09a108.79,108.79,0,0,0,26.62-26c1.82-2.48,3.46-5.06,5.05-7.65s3-5.28,4.35-8c2.69-5.38,5.25-10.93,9.26-15.41s9-7.73,14.08-10.58L349,134.21c9.9-5.56,19.39-11.31,28.47-17.14a566.24,566.24,0,0,0,88.46-70.25l.29-.28V47a77.62,77.62,0,0,1-3.82,24.91,81,81,0,0,1-9.58,19.54,75.6,75.6,0,0,1-23.12,22.44l-.05-.15a71.18,71.18,0,0,0,15.5-2.81c1.67-.49,2.88-.92,3.69-1.2l1.21-.42s-1.56.68-4.87,1.7a70.08,70.08,0,0,1-15.52,2.9l-.32,0,.27-.18a75.77,75.77,0,0,0,23-22.45,80.64,80.64,0,0,0,9.5-19.48A76.57,76.57,0,0,0,465.88,47l.3.12a563.69,563.69,0,0,1-88.45,70.39c-9.08,5.84-18.57,11.61-28.48,17.18l-15.11,8.29c-5,2.84-10,6.07-13.95,10.49s-6.49,9.9-9.19,15.3q-2,4.07-4.36,8c-1.6,2.61-3.24,5.2-5.07,7.69a109.15,109.15,0,0,1-26.75,26.13l.11-.25c1.12,8.12,2.26,16.45,3.41,24.84.78,5.7,1.56,11.37,2.28,16.64l-.17-.21a23,23,0,0,0,8,.52,74.51,74.51,0,0,0,8-1.1c5.31-1,10.51-2.37,15.63-3.87s10.15-3.18,15.08-5a149.85,149.85,0,0,0,14.42-6c4.64-2.26,8.47-5.77,12-9.38s6.89-7.43,10.69-10.7a37.5,37.5,0,0,1,6.13-4.29c2.19-1.21,4.52-2,6.66-3.14s4.19-2.51,5.27-4.64a9.53,9.53,0,0,0,1-6.77l-.07-.26.28,0a52.74,52.74,0,0,1,11.51,0c3.75.27,7.51-.25,11.22-.4a7.54,7.54,0,0,0,4.92-1.85,6.77,6.77,0,0,0,1.72-4.86,6.1,6.1,0,0,0-2.47-4.4,8.12,8.12,0,0,0-4.77-1.81l-2.14,0,2.1-.4,13.44-2.55,6.57-1.24c2.14-.41,4.4-.81,5.9-2.32a5.44,5.44,0,0,0,1.05-5.78,7.56,7.56,0,0,0-4.36-4.12,12.76,12.76,0,0,0-6-.79,39,39,0,0,0-5.94,1l-.13-.38,21.43-9.15,10.12-4.32,4.91-2.1,2.41-1a4.37,4.37,0,0,0,2-1.42,3.4,3.4,0,0,0-.1-4.44,3.86,3.86,0,0,0-2.17-.92,9.88,9.88,0,0,0-2.43,0L443,144.91l-17.53,2.57-1.26.19,1.19-.46A65.13,65.13,0,0,0,437.55,141a67.75,67.75,0,0,0,9.45-7.57,64,64,0,0,0,11.7-15.07,6.67,6.67,0,0,0,.53-3.55,6.89,6.89,0,0,0-1.16-2.94,7.38,7.38,0,0,0-1.93-1.9,7.17,7.17,0,0,0-2.05-.89,7.33,7.33,0,0,0-1.75-.21,10.35,10.35,0,0,0-1.27.16Z" style="fill: rgb(38, 50, 56); transform-origin: 370.352px 149.652px;" id="elafspyo13dc" class="animable"></path><path d="M330.19,208.58a61,61,0,0,0,15.2-28.92c.62-2.9,1.06-5.94,2.69-8.42,2.6-4,7.53-5.55,11.78-7.69s8.54-6.12,7.75-10.81a23.41,23.41,0,0,1-15,9.87c-2.08.38-4.35.54-6,1.9-2.07,1.75-1.94,4.86-2.54,7.5-2.64,11.66-8.66,26.62-15.08,36.57" style="fill: rgb(235, 235, 235); transform-origin: 348.347px 180.66px;" id="elczx9niv830e" class="animable"></path><path d="M422.78,109.67a1.86,1.86,0,0,1-.25.24l-.77.65c-.69.57-1.69,1.45-3,2.51-2.68,2.15-6.71,5.15-12,8.66S395,129.19,387.5,133.45s-16,8.84-25,14l-.15-.46a12.49,12.49,0,0,1,4,.21,5.24,5.24,0,0,1,1.93.81,2.22,2.22,0,0,1,.72.87,2,2,0,0,1,.05,1.13,11.3,11.3,0,0,1-4.72,6.76A40.14,40.14,0,0,1,348.7,164c-.94.21-1.89.37-2.77.51l.22-.19c-3.7,13.63-7.5,26.63-13.1,37.55a78,78,0,0,1-9.4,14.55,62.64,62.64,0,0,1-11,10.35,47.06,47.06,0,0,1-19.77,8.77c-.64.11-1.23.23-1.8.3l-1.59.15-1.36.12H285.5c-.35,0-.53,0-.53,0l.53,0L287,236l1.13,0,1.36-.14,1.58-.17c.56-.08,1.15-.21,1.78-.32a47.67,47.67,0,0,0,19.6-8.87,63.1,63.1,0,0,0,10.84-10.33,77.58,77.58,0,0,0,9.3-14.5c5.55-10.87,9.33-23.84,13-37.47l0-.16.17,0c.86-.13,1.8-.29,2.72-.5A39.65,39.65,0,0,0,364,156.34a10.78,10.78,0,0,0,4.53-6.44,1.47,1.47,0,0,0,0-.86,1.7,1.7,0,0,0-.55-.65,4.72,4.72,0,0,0-1.74-.72,12,12,0,0,0-3.82-.21l-1.19.13,1-.59c9-5.13,17.52-9.67,25-13.92s14-8.15,19.3-11.61,9.32-6.42,12-8.53c1.37-1,2.37-1.89,3.08-2.44l.8-.63A2,2,0,0,1,422.78,109.67Z" style="fill: rgb(38, 50, 56); transform-origin: 353.875px 172.89px;" id="el4fw1x9es93x" class="animable"></path><path d="M404.63,141c-5.53,5.06-10.51,9.55-18.62,11.11,2.81-.85,6.37-.47,7.08,1.62s-1.89,5.64-3.46,7.19a26.49,26.49,0,0,1-5.67,4.59c-7.5,3.84-12.62,3.37-18.95,5.22,1.41-.2,4,.48,5.37.17,3.61-.79,5.9.8,5.89,2.41,0,2.33-2.08,4.39-3.24,5.69-3.41,3.83-10,7.55-14.44,10.15l-10.3,5.76c12.88-4.7,24.55-12.15,36.1-19.54,1.48-.94,3.08-2.07,3.4-3.79s-1.82-3.64-3.14-2.5c1.93-2,4.47-3.32,6.84-4.8s4.72-3.27,5.86-5.82.63-6-1.76-7.46A14.5,14.5,0,0,0,404.63,141Z" style="fill: rgb(235, 235, 235); transform-origin: 376.46px 167.955px;" id="el1wh2yad7zqf" class="animable"></path><path d="M404.12,136.6a1.34,1.34,0,0,1,.36.36,2.69,2.69,0,0,1,.52,1.36,3.85,3.85,0,0,1-.44,2.28,8.21,8.21,0,0,1-2,2.36,49.29,49.29,0,0,1-15.64,9.12l-.11-.5a14.42,14.42,0,0,1,2.71,0,6.1,6.1,0,0,1,2.7.85,3.17,3.17,0,0,1,1.46,2.92,5.65,5.65,0,0,1-1.25,2.9,27.18,27.18,0,0,1-4.18,4.08,31.07,31.07,0,0,1-8.56,4.81,29.4,29.4,0,0,1-6.42,1.59,15.76,15.76,0,0,1-1.79.16,3,3,0,0,1-.63,0c0-.06.86-.1,2.39-.37a32.24,32.24,0,0,0,6.32-1.73,31.49,31.49,0,0,0,8.39-4.85,26.92,26.92,0,0,0,4.07-4,5.31,5.31,0,0,0,1.15-2.64,2.66,2.66,0,0,0-1.23-2.44,5.47,5.47,0,0,0-2.48-.77,13.29,13.29,0,0,0-2.6,0l-2,.17,1.88-.66a51,51,0,0,0,15.59-8.9,8.22,8.22,0,0,0,2-2.23,3.75,3.75,0,0,0,.49-2.14A3.12,3.12,0,0,0,404.12,136.6Z" style="fill: rgb(38, 50, 56); transform-origin: 387.938px 152.753px;" id="elpkm4mb4ngmj" class="animable"></path><path d="M358,172.1a2.83,2.83,0,0,1,.63-.12l1.79-.22L367,171l4.58-.48a7.38,7.38,0,0,1,2.63.13,3.15,3.15,0,0,1,2.1,1.88,4.58,4.58,0,0,1,.1,3,6.7,6.7,0,0,1-1.63,2.6,20.83,20.83,0,0,1-2.35,2c-.83.65-1.67,1.29-2.54,1.93A108.15,108.15,0,0,1,351,193.27c-2.56,1.17-4.68,2-6.15,2.57-.74.28-1.31.48-1.71.61a2.39,2.39,0,0,1-.6.18,2.74,2.74,0,0,1,.57-.28l1.67-.69c1.44-.62,3.53-1.51,6.07-2.72a116.92,116.92,0,0,0,18.77-11.27c.86-.63,1.7-1.28,2.53-1.92a20.23,20.23,0,0,0,2.3-2,6.23,6.23,0,0,0,1.52-2.4,4.11,4.11,0,0,0-.06-2.64,2.72,2.72,0,0,0-1.79-1.62,7,7,0,0,0-2.46-.14l-4.58.42-6.64.57-1.8.13A4.42,4.42,0,0,1,358,172.1Z" style="fill: rgb(38, 50, 56); transform-origin: 359.578px 183.544px;" id="el1sfuqhf3mfsh" class="animable"></path><path d="M324.84,185.55a3.62,3.62,0,0,1,.34,1,24.76,24.76,0,0,1,.61,2.79,36.82,36.82,0,0,1,.35,9.41,37.32,37.32,0,0,1-2,9.2,24.85,24.85,0,0,1-1.11,2.64,4.82,4.82,0,0,1-.51.92c-.08,0,.53-1.4,1.27-3.68a41.93,41.93,0,0,0,1.68-18.44C325.11,187,324.76,185.57,324.84,185.55Z" style="fill: rgb(38, 50, 56); transform-origin: 324.403px 198.53px;" id="eliwa419iqm5" class="animable"></path><path d="M327.91,180a11.41,11.41,0,0,1,.83,2.61,38,38,0,0,1,.95,6.57,37.06,37.06,0,0,1-.23,6.62,11.3,11.3,0,0,1-.54,2.7,19.62,19.62,0,0,1,.18-2.73,52.94,52.94,0,0,0,.07-6.57,51.25,51.25,0,0,0-.79-6.51A19,19,0,0,1,327.91,180Z" style="fill: rgb(38, 50, 56); transform-origin: 328.828px 189.25px;" id="elwqqshaoj9u" class="animable"></path><path d="M331.55,180.73a18.64,18.64,0,0,1,.63,4.42,18.48,18.48,0,0,1,.11,4.46,19.63,19.63,0,0,1-.62-4.42A19.46,19.46,0,0,1,331.55,180.73Z" style="fill: rgb(38, 50, 56); transform-origin: 331.925px 185.17px;" id="el8hjw3l3xizs" class="animable"></path><path d="M438.43,86.79a8,8,0,0,1-.29,2.33,29.21,29.21,0,0,1-1.74,5.37,28.41,28.41,0,0,1-2.76,4.93,8.14,8.14,0,0,1-1.49,1.8,77.47,77.47,0,0,0,3.77-6.94A72.23,72.23,0,0,0,438.43,86.79Z" style="fill: rgb(38, 50, 56); transform-origin: 435.291px 94.005px;" id="eld5g2yh0ya29" class="animable"></path><path d="M441.08,87.91a15.17,15.17,0,0,1-1,5.4,15.75,15.75,0,0,1-2.39,4.94c-.14-.08,1-2.26,1.9-5.11S440.93,87.89,441.08,87.91Z" style="fill: rgb(38, 50, 56); transform-origin: 439.379px 93.0799px;" id="el9asfllh2bc" class="animable"></path><path d="M443.24,86.43a11.21,11.21,0,0,1-.48,3.38,11.31,11.31,0,0,1-1,3.27,11.43,11.43,0,0,1,.49-3.38A11.36,11.36,0,0,1,443.24,86.43Z" style="fill: rgb(38, 50, 56); transform-origin: 442.5px 89.755px;" id="elb8hlprl06m" class="animable"></path><path d="M329.49,150.79c.27.35-2.94,2.7-6.65,7.74a69.3,69.3,0,0,0-5.67,9.42c-.95,1.85-1.9,3.83-2.87,5.9a65.81,65.81,0,0,1-3.43,6.35A104.44,104.44,0,0,1,295,199.67c-4.6,4.46-7.72,6.91-7.95,6.66s2.4-3.18,6.62-7.93a144.71,144.71,0,0,0,15-19.55c1.27-2,2.34-4.09,3.35-6.1s2-4.06,3.05-5.93a57.06,57.06,0,0,1,6.35-9.43,32.4,32.4,0,0,1,5.6-5.26C328.47,151.07,329.4,150.66,329.49,150.79Z" style="fill: rgb(255, 255, 255); transform-origin: 308.271px 178.557px;" id="elz00hzmi0pqa" class="animable"></path><path d="M339.88,144.73c.54.46.08,1.86-1.35,2.67s-2.87.5-3-.2.69-1.48,1.7-2.06S339.34,144.24,339.88,144.73Z" style="fill: rgb(255, 255, 255); transform-origin: 337.808px 146.186px;" id="eljgaa9wxeqh" class="animable"></path><path d="M424.18,87.15c.22.28-3.4,3.6-9.53,8.61s-14.83,11.68-24.71,18.65-19.09,12.91-25.88,17-11.12,6.39-11.31,6.09,3.8-3.15,10.31-7.64,15.52-10.64,25.38-17.58,18.68-13.36,25.08-18S424,86.86,424.18,87.15Z" style="fill: rgb(255, 255, 255); transform-origin: 388.466px 112.328px;" id="el6l34tugvq17" class="animable"></path><path d="M211.8,233.38c.63,10.46,2.4,17.64,3,28.1.18,3,.84,8.84,2,11.66a12.15,12.15,0,0,0,7.82,6.27c3,.58,3-.59,5.74-1.78a81.78,81.78,0,0,1,41-6.16c4.94.54,10.44,1.39,14.45-1.55,3.71-2.72,4.78-8,3.93-12.49s-3.26-8.58-5.37-12.67a107.25,107.25,0,0,1-9-24.21c-.9-3.79-1.63-7.71-3.65-11.05s-5.7-6-9.56-5.54" style="fill: rgb(126, 87, 194); transform-origin: 250.907px 241.736px;" id="el5y7d0qct8hk" class="animable"></path><path d="M432.45,397.44C430,401.5,427,406,422.31,406.67c-5.11.77-9.77-3.36-14.93-3.61-7.24-.35-12.67,7-14,14.12s0,14.51-1,21.67A32.86,32.86,0,0,1,348.57,465c-6.93-2.52-12.94-7.34-20.1-9.09-14.53-3.53-42,20.11-48.42,11.37-15.57-32.07-26.24-55.95-35.42-89.29a846.24,846.24,0,0,1-21.07-102.66l60.12-13c8,5.74,14.11,18.18,19.73,23.56,6.64,6.36,13.91,16,19.73,23.17,3.39,4.16,3,12.63,7.7,15.25s10.53-.18,15.78.78c9.52,1.74,12.9,14.32,21.56,18.65,6.31,3.16,13,8.32,29.42,10.13,0,0,15.36-6.06,42.17,25.42Z" style="fill: rgb(126, 87, 194); transform-origin: 331.665px 365.781px;" id="eloew6u47xz4d" class="animable"></path><path d="M251.76,271.2a6.17,6.17,0,0,1-1.26.25c-.8.13-2,.31-3.41.57a56.65,56.65,0,0,0-11,3.1c-2.06.83-3.94,1.83-5.74,2.6a17.63,17.63,0,0,1-5,1.49,6.89,6.89,0,0,1-3.48-.41,4.35,4.35,0,0,1-.85-.43c-.19-.12-.28-.18-.27-.2s.42.19,1.19.44a7,7,0,0,0,3.36.24,18.17,18.17,0,0,0,4.82-1.57c1.76-.78,3.64-1.8,5.73-2.64a48.81,48.81,0,0,1,11.09-3c1.45-.22,2.63-.35,3.45-.41A6.21,6.21,0,0,1,251.76,271.2Z" style="fill: rgb(38, 50, 56); transform-origin: 236.255px 275.226px;" id="elcyapkld0bcn" class="animable"></path><path d="M298,443a.93.93,0,0,1-.17-.23l-.45-.7c-.4-.65-1-1.56-1.68-2.71-1.45-2.35-3.49-5.8-5.94-10.1s-5.27-9.48-8.29-15.29-6.16-12.29-9.3-19.16-5.92-13.51-8.36-19.59-4.48-11.6-6.11-16.28-2.91-8.47-3.73-11.11c-.41-1.29-.72-2.31-1-3.05-.09-.32-.17-.58-.23-.79a.93.93,0,0,1-.06-.28l.11.26.28.78,1,3c.88,2.62,2.2,6.4,3.88,11.05S261.84,369,264.27,375s5.27,12.68,8.39,19.55,6.3,13.32,9.26,19.15,5.77,11,8.18,15.33,4.39,7.79,5.8,10.18q1,1.75,1.59,2.76l.41.72A1.44,1.44,0,0,1,298,443Z" style="fill: rgb(38, 50, 56); transform-origin: 275.34px 393.355px;" id="el0kbsi6p1ch1a" class="animable"></path><path d="M379.48,423.76l-.24-.13-.68-.44L376,421.45c-1.13-.75-2.49-1.69-4.05-2.82s-3.36-2.37-5.28-3.83c-3.9-2.87-8.44-6.42-13.38-10.48s-10.22-8.72-15.61-13.77-10.31-10.07-14.7-14.73-8.19-9-11.29-12.7c-1.58-1.83-2.94-3.55-4.16-5s-2.24-2.79-3.06-3.86-1.43-1.88-1.89-2.47l-.48-.65q-.16-.23-.15-.24l.19.2.52.62,2,2.41c.85,1.06,1.89,2.34,3.13,3.81s2.61,3.17,4.21,5c3.13,3.68,7,8,11.36,12.61s9.35,9.62,14.71,14.68,10.67,9.67,15.56,13.78,9.43,7.65,13.29,10.55c1.91,1.49,3.69,2.75,5.23,3.9s2.89,2.1,4,2.88l2.53,1.82.65.48Q379.5,423.75,379.48,423.76Z" style="fill: rgb(38, 50, 56); transform-origin: 340.716px 387.33px;" id="el1mi26ftdwdg" class="animable"></path><path d="M416.13,389.77a1.45,1.45,0,0,1-.34-.06l-1-.23-3.77-.94-2.72-.69c-1-.27-2.06-.6-3.21-.94-2.29-.69-4.92-1.41-7.76-2.43l-4.48-1.54c-1.56-.54-3.14-1.19-4.8-1.82-3.34-1.22-6.8-2.77-10.46-4.34a241.77,241.77,0,0,1-23-12,240.74,240.74,0,0,1-21.43-14.64c-3.12-2.49-6.12-4.82-8.77-7.18-1.33-1.16-2.66-2.25-3.87-3.37l-3.46-3.23c-2.24-2-4.12-4-5.81-5.7-.84-.85-1.64-1.64-2.34-2.38L307,326.22l-2.61-2.89-.67-.75c-.14-.18-.22-.27-.21-.27s.09.07.25.23l.71.72,2.67,2.82c.58.61,1.23,1.29,1.93,2s1.52,1.5,2.36,2.35c1.72,1.67,3.61,3.63,5.86,5.63l3.48,3.2c1.22,1.11,2.54,2.19,3.88,3.34,2.66,2.35,5.66,4.65,8.78,7.13a224.47,224.47,0,0,0,44.34,26.57c3.66,1.58,7.1,3.14,10.42,4.38,1.66.64,3.23,1.3,4.78,1.85l4.46,1.56c2.83,1,5.46,1.78,7.74,2.5,1.14.35,2.2.7,3.18,1l2.71.74,3.74,1,1,.28Z" style="fill: rgb(38, 50, 56); transform-origin: 359.82px 356.04px;" id="el7i04x1yvpxj" class="animable"></path><path d="M288.11,391.17c-.15,0-.26-9.16-.26-20.46s.11-20.45.26-20.45.26,9.16.26,20.45S288.25,391.17,288.11,391.17Z" style="fill: rgb(255, 255, 255); transform-origin: 288.11px 370.715px;" id="elr6p6sjex8m" class="animable"></path><path d="M306.18,381.28c-.07.12-8.22-4.47-18.2-10.25s-18-10.58-18-10.7,8.22,4.46,18.21,10.25S306.25,381.15,306.18,381.28Z" style="fill: rgb(255, 255, 255); transform-origin: 288.08px 370.805px;" id="elrcyteajh9jb" class="animable"></path><path d="M270.48,380.74c-.07-.13,7.77-4.64,17.5-10.07s17.68-9.75,17.75-9.62-7.76,4.63-17.5,10.07S270.55,380.86,270.48,380.74Z" style="fill: rgb(255, 255, 255); transform-origin: 288.105px 370.895px;" id="elxag5e5ty9c" class="animable"></path><path d="M292.92,359.64a45.63,45.63,0,0,1-4.6,5l0,0-.19.19-.18-.19a44.33,44.33,0,0,1-4.51-5,43.74,43.74,0,0,1,4.88,4.65h-.37l0,0A43.64,43.64,0,0,1,292.92,359.64Z" style="fill: rgb(255, 255, 255); transform-origin: 288.18px 362.235px;" id="elfcs0nwnc278" class="animable"></path><path d="M291.33,354.45a19.16,19.16,0,0,1-2.9,3.29l-.08.08-.18.18-.18-.17a17.79,17.79,0,0,1-2.95-3.1,18.37,18.37,0,0,1,3.3,2.72H288l.08-.08A18.81,18.81,0,0,1,291.33,354.45Z" style="fill: rgb(255, 255, 255); transform-origin: 288.185px 356.225px;" id="el4roxoykj1mx" class="animable"></path><path d="M300.64,369.11a43.75,43.75,0,0,1-6.6-1.59h0l-.25-.08.07-.25a43.76,43.76,0,0,1,2.2-6.38,43.25,43.25,0,0,1-1.7,6.53l-.18-.32h0A44.57,44.57,0,0,1,300.64,369.11Z" style="fill: rgb(255, 255, 255); transform-origin: 297.215px 364.96px;" id="elqbq9ptett7m" class="animable"></path><path d="M304.4,365.2a18.68,18.68,0,0,1-4.29-.93l-.1,0-.25-.07.06-.25a18.28,18.28,0,0,1,1.28-4.08,18.14,18.14,0,0,1-.77,4.21l-.18-.32.1,0A18.78,18.78,0,0,1,304.4,365.2Z" style="fill: rgb(255, 255, 255); transform-origin: 302.08px 362.535px;" id="elr8kcsi4fdy9" class="animable"></path><path d="M295.73,380.54a43,43,0,0,1-2.34-6.37v0l-.08-.25.25-.08a43.76,43.76,0,0,1,6.53-1.71,46,46,0,0,1-6.38,2.21l.17-.33,0,0A44.41,44.41,0,0,1,295.73,380.54Z" style="fill: rgb(255, 255, 255); transform-origin: 296.7px 376.335px;" id="elq1f4empc0t" class="animable"></path><path d="M300.36,381.5a19.5,19.5,0,0,1-1.6-4.09l0-.1-.08-.24.24-.09a17.48,17.48,0,0,1,4.1-1.2,18.38,18.38,0,0,1-3.93,1.69l.16-.32,0,.1A18,18,0,0,1,300.36,381.5Z" style="fill: rgb(255, 255, 255); transform-origin: 300.85px 378.64px;" id="el6lpvqxh43xb" class="animable"></path><path d="M283.36,382.21a44.71,44.71,0,0,1,4.45-5.13l0,0,.18-.19.19.18a45.53,45.53,0,0,1,4.66,4.88,43.35,43.35,0,0,1-5-4.51h.37l0,0A43.34,43.34,0,0,1,283.36,382.21Z" style="fill: rgb(255, 255, 255); transform-origin: 288.1px 379.55px;" id="el1gnoalin2bv" class="animable"></path><path d="M285,386.73a19,19,0,0,1,2.8-3.38l.08-.08.17-.19.19.17a17.38,17.38,0,0,1,3,3,18.36,18.36,0,0,1-3.38-2.62l.36,0-.08.08A18.42,18.42,0,0,1,285,386.73Z" style="fill: rgb(255, 255, 255); transform-origin: 288.12px 384.905px;" id="elueoyxx1rta" class="animable"></path><path d="M275.81,372.11a44.05,44.05,0,0,1,6.58,1.67h0l.26.08-.08.25a43.67,43.67,0,0,1-2.28,6.35,43.9,43.9,0,0,1,1.78-6.51l.17.33h0A45.49,45.49,0,0,1,275.81,372.11Z" style="fill: rgb(255, 255, 255); transform-origin: 279.23px 376.285px;" id="el9aa9jopdlc8" class="animable"></path><path d="M272.53,375.63a19.48,19.48,0,0,1,4.27,1l.11,0,.24.07-.06.25a17.57,17.57,0,0,1-1.33,4.06,17.9,17.9,0,0,1,.82-4.19l.18.31-.11,0A17.88,17.88,0,0,1,272.53,375.63Z" style="fill: rgb(255, 255, 255); transform-origin: 274.84px 378.32px;" id="elvjsd3xcg3yf" class="animable"></path><path d="M281,360.52a44.62,44.62,0,0,1,1.61,6.59v.05l0,.26-.26,0a43.74,43.74,0,0,1-6.68,1,44.9,44.9,0,0,1,6.58-1.48l-.2.31v0A44.26,44.26,0,0,1,281,360.52Z" style="fill: rgb(255, 255, 255); transform-origin: 279.14px 364.47px;" id="el267c1q23gbii" class="animable"></path><path d="M275.86,359.89a19.33,19.33,0,0,1,1.13,4.24l0,.11.05.25-.24.06a18,18,0,0,1-4.22.73,19.14,19.14,0,0,1,4.1-1.24l-.2.31,0-.11A17.71,17.71,0,0,1,275.86,359.89Z" style="fill: rgb(255, 255, 255); transform-origin: 274.81px 362.585px;" id="el3nnxulmd6yc" class="animable"></path><g id="eloyagzh3n4d9"><g style="opacity: 0.3; transform-origin: 291.28px 363.02px;" class="animable"><path d="M293.08,366.39l-3.6-6.74C290.59,362,291.8,364.2,293.08,366.39Z" id="eldjortqwh4o" class="animable" style="transform-origin: 291.28px 363.02px;"></path></g></g><g id="el9fio7508hmr"><g style="opacity: 0.3; transform-origin: 327.729px 408.691px;" class="animable"><path d="M359.58,440.33c-20.4-26.22-49.9-45.54-66.5-73.94L299.82,379c8.37,13.14,14.76,23.13,23.13,36.28,8,12.55,15.16,27.43,28.42,34.2,3.52,1.8,8.81,2.56,10.56-1C363.25,445.78,361.41,442.68,359.58,440.33Z" id="elqak1j1jcsy" class="animable" style="transform-origin: 327.729px 408.691px;"></path></g></g><g id="elms7jzunupb"><g style="opacity: 0.3; transform-origin: 257.19px 377.57px;" class="animable"><path d="M247.17,355a254.77,254.77,0,0,0,24.4,59.07c-1.86-26.9-21.75-46.94-28.76-73" id="el8j5f8ji2q48" class="animable" style="transform-origin: 257.19px 377.57px;"></path></g></g><path d="M225.72,279.19a4.22,4.22,0,0,1-.05,1.2,12.29,12.29,0,0,1-.83,3.15,14,14,0,0,1-2.57,4.11,12,12,0,0,1-2.18,1.91,4.11,4.11,0,0,1-1.48.59,2.17,2.17,0,0,1-1.66-.4,3,3,0,0,1-.91-3,8.23,8.23,0,0,1,1.13-2.69,9.55,9.55,0,0,1,3.57-3.29,8.81,8.81,0,0,1,3.11-1,6.13,6.13,0,0,1,.89,0q.3,0,.3,0a11.86,11.86,0,0,0-4.12,1.34,9.55,9.55,0,0,0-3.35,3.23,7.83,7.83,0,0,0-1,2.52,2.52,2.52,0,0,0,.73,2.52,2.24,2.24,0,0,0,2.55-.22,11,11,0,0,0,2.09-1.79,14.21,14.21,0,0,0,2.59-3.93A20.9,20.9,0,0,0,225.72,279.19Z" style="fill: rgb(38, 50, 56); transform-origin: 220.842px 284.685px;" id="elq4ozz5dyi4m" class="animable"></path><path d="M224.86,279.54s.11-.06.33-.13a9.7,9.7,0,0,1,1-.24,17.35,17.35,0,0,1,3.69-.37,19.65,19.65,0,0,1,5.45.77,14.75,14.75,0,0,1,3,1.22,4,4,0,0,1,1.35,1.2,2.66,2.66,0,0,1,.45,1.85,1.93,1.93,0,0,1-1.14,1.55,3.38,3.38,0,0,1-1.82.16c-1.14-.19-2.16-.45-3.18-.7a18.73,18.73,0,0,1-5.12-2,9.85,9.85,0,0,1-2.8-2.44,6.6,6.6,0,0,1-.56-.85c-.1-.21-.15-.32-.13-.33a11.28,11.28,0,0,0,3.67,3.3,19.75,19.75,0,0,0,5.06,1.85c1,.22,2.07.49,3.13.66a3.05,3.05,0,0,0,1.54-.13,1.42,1.42,0,0,0,.84-1.15,2.17,2.17,0,0,0-.37-1.49,3.51,3.51,0,0,0-1.18-1,14.86,14.86,0,0,0-2.92-1.2,19.86,19.86,0,0,0-5.32-.86A33,33,0,0,0,224.86,279.54Z" style="fill: rgb(38, 50, 56); transform-origin: 232.506px 282.204px;" id="ely7rslwnx968" class="animable"></path><path d="M286,330.93c-.14,0-.26-9.16-.26-20.46S285.89,290,286,290s.26,9.16.26,20.46S286.18,330.93,286,330.93Z" style="fill: rgb(255, 255, 255); transform-origin: 286px 310.465px;" id="elxbwi9h0ncn" class="animable"></path><path d="M304.11,321c-.08.13-8.23-4.46-18.21-10.24s-18-10.58-17.94-10.71,8.22,4.47,18.2,10.25S304.18,320.91,304.11,321Z" style="fill: rgb(255, 255, 255); transform-origin: 286.035px 310.525px;" id="el8szmktkrzaj" class="animable"></path><path d="M268.41,320.5c-.07-.13,7.76-4.64,17.5-10.08s17.68-9.74,17.75-9.62-7.77,4.64-17.5,10.08S268.48,320.62,268.41,320.5Z" style="fill: rgb(255, 255, 255); transform-origin: 286.035px 310.65px;" id="elq3v23uqtz7" class="animable"></path><path d="M290.85,299.39a45.15,45.15,0,0,1-4.6,5l0,0-.19.18-.18-.19a43.35,43.35,0,0,1-4.51-5,44.34,44.34,0,0,1,4.88,4.66h-.37l0,0A43.37,43.37,0,0,1,290.85,299.39Z" style="fill: rgb(255, 255, 255); transform-origin: 286.11px 301.975px;" id="elk3k393ys2ib" class="animable"></path><path d="M289.25,294.2a18,18,0,0,1-2.9,3.3l-.07.08-.18.18-.19-.18a17.16,17.16,0,0,1-2.94-3.1,18.77,18.77,0,0,1,3.3,2.72h-.36l.07-.08A19.05,19.05,0,0,1,289.25,294.2Z" style="fill: rgb(255, 255, 255); transform-origin: 286.11px 295.98px;" id="el6m1oz8y72hr" class="animable"></path><path d="M298.57,308.87a44.29,44.29,0,0,1-6.6-1.6h0l-.26-.07.08-.25a43.76,43.76,0,0,1,2.2-6.38,46.35,46.35,0,0,1-1.7,6.53l-.18-.33h0A44.86,44.86,0,0,1,298.57,308.87Z" style="fill: rgb(255, 255, 255); transform-origin: 295.14px 304.72px;" id="elr1y14b5lyo8" class="animable"></path><path d="M302.33,305A19.05,19.05,0,0,1,298,304l-.11,0-.24-.07.06-.24A17.48,17.48,0,0,1,299,299.6a18.11,18.11,0,0,1-.77,4.2l-.19-.31.11,0A18.19,18.19,0,0,1,302.33,305Z" style="fill: rgb(255, 255, 255); transform-origin: 299.99px 302.3px;" id="el0l6tr9gbbsep" class="animable"></path><path d="M293.65,320.3a45.58,45.58,0,0,1-2.33-6.38l0,0-.08-.25.26-.07a44.68,44.68,0,0,1,6.52-1.72,42.63,42.63,0,0,1-6.37,2.21l.17-.33v0A42.89,42.89,0,0,1,293.65,320.3Z" style="fill: rgb(255, 255, 255); transform-origin: 294.63px 316.09px;" id="elgo1emtfvf8q" class="animable"></path><path d="M298.29,321.26a18.88,18.88,0,0,1-1.6-4.09l0-.11-.07-.24.23-.08a18.45,18.45,0,0,1,4.11-1.21,17.81,17.81,0,0,1-3.93,1.7l.16-.33,0,.11A18.36,18.36,0,0,1,298.29,321.26Z" style="fill: rgb(255, 255, 255); transform-origin: 298.79px 318.395px;" id="elrqsi3t9y9o7" class="animable"></path><path d="M281.29,322a45.17,45.17,0,0,1,4.44-5.13l0,0,.18-.2.19.19a42.36,42.36,0,0,1,4.66,4.88,45.55,45.55,0,0,1-5-4.51h.37l0,0A42.8,42.8,0,0,1,281.29,322Z" style="fill: rgb(255, 255, 255); transform-origin: 286.025px 319.335px;" id="ela99xz78wyyw" class="animable"></path><path d="M283,326.49a19,19,0,0,1,2.8-3.38l.08-.09.17-.18.19.17a18.44,18.44,0,0,1,3,3,17.73,17.73,0,0,1-3.39-2.61l.37,0-.08.08A18.42,18.42,0,0,1,283,326.49Z" style="fill: rgb(255, 255, 255); transform-origin: 286.12px 324.665px;" id="eleefksihx2js" class="animable"></path><path d="M273.74,311.86a43.42,43.42,0,0,1,6.58,1.68h0l.25.07-.08.26a45.59,45.59,0,0,1-2.27,6.35,43.9,43.9,0,0,1,1.78-6.51l.17.33h0A44.84,44.84,0,0,1,273.74,311.86Z" style="fill: rgb(255, 255, 255); transform-origin: 277.155px 316.04px;" id="el1y781i7vms6" class="animable"></path><path d="M270.45,315.39a18.21,18.21,0,0,1,4.28,1l.11,0,.24.07-.07.24a18.44,18.44,0,0,1-1.32,4.07,17.93,17.93,0,0,1,.82-4.2l.18.32-.11,0A18.91,18.91,0,0,1,270.45,315.39Z" style="fill: rgb(255, 255, 255); transform-origin: 272.765px 318.08px;" id="ele4utmdd70xq" class="animable"></path><path d="M279,300.28a43.92,43.92,0,0,1,1.6,6.59v0l.06.26-.26.05a43.91,43.91,0,0,1-6.68,1,44.12,44.12,0,0,1,6.58-1.48l-.21.3v0A45.13,45.13,0,0,1,279,300.28Z" style="fill: rgb(255, 255, 255); transform-origin: 277.19px 304.23px;" id="eltwxqxs6c13r" class="animable"></path><path d="M273.78,299.65a18.79,18.79,0,0,1,1.14,4.24l0,.11.05.25-.25.06a18,18,0,0,1-4.21.73,17.89,17.89,0,0,1,4.09-1.24l-.19.3,0-.11A18.61,18.61,0,0,1,273.78,299.65Z" style="fill: rgb(255, 255, 255); transform-origin: 272.74px 302.345px;" id="el25gxl8wiimj" class="animable"></path><path d="M314,316.92a21.54,21.54,0,0,1-3.79,2.07,30.08,30.08,0,0,1-11.49,2.46,29,29,0,0,1-16.6-4.92,29.82,29.82,0,0,1-7.52-7.1c-2.18-2.88-3.62-6.38-6.11-9.17a9.08,9.08,0,0,0-4.55-2.87,10.42,10.42,0,0,0-5.26.27c-3.4.94-6.53,2.64-9.89,3a17.72,17.72,0,0,1-9.2-1.59,21.39,21.39,0,0,1-6.63-4.75,30,30,0,0,1-6.11-10c-.49-1.3-.79-2.34-1-3q-.12-.49-.21-.81a1.17,1.17,0,0,1-.05-.28,1,1,0,0,1,.11.27l.25.79c.24.69.57,1.71,1.09,3a30.45,30.45,0,0,0,6.19,9.85,21,21,0,0,0,6.54,4.61,17.44,17.44,0,0,0,9,1.52c3.24-.32,6.33-2,9.81-3a10.79,10.79,0,0,1,5.51-.28,9.52,9.52,0,0,1,4.81,3c2.58,2.89,4,6.39,6.14,9.22a29.36,29.36,0,0,0,7.37,7,28.91,28.91,0,0,0,16.34,4.95,30.58,30.58,0,0,0,11.41-2.28c1.28-.54,2.24-1,2.88-1.36l.74-.4Z" style="fill: rgb(38, 50, 56); transform-origin: 269.795px 300.842px;" id="eleg5k9t6yme8" class="animable"></path><path d="M270.7,311.31s-.64-.65-2-1.63a15.62,15.62,0,0,0-6.29-2.71,14.82,14.82,0,0,0-4.73-.11,40.56,40.56,0,0,0-5.34,1.31,21.43,21.43,0,0,1-6.07,1.05,16.24,16.24,0,0,1-6.45-1.44,20.19,20.19,0,0,1-5.52-3.66,22.25,22.25,0,0,1-3.92-4.75,32.66,32.66,0,0,1-3.84-9.64,53.86,53.86,0,0,1-1.11-6.9c-.07-.82-.13-1.46-.14-1.89a2.62,2.62,0,0,1,0-.67,5.35,5.35,0,0,1,.11.66l.24,1.88a63.44,63.44,0,0,0,1.27,6.83,32.92,32.92,0,0,0,3.89,9.47,21.65,21.65,0,0,0,3.86,4.63,19.6,19.6,0,0,0,5.38,3.56,15.82,15.82,0,0,0,6.25,1.41,20.93,20.93,0,0,0,5.93-1,40.86,40.86,0,0,1,5.41-1.28,15.25,15.25,0,0,1,4.86.17,15.48,15.48,0,0,1,6.35,2.92,13.23,13.23,0,0,1,1.4,1.28A3.63,3.63,0,0,1,270.7,311.31Z" style="fill: rgb(38, 50, 56); transform-origin: 247.984px 295.79px;" id="el5ge8xt706xf" class="animable"></path><g id="el2aq5l3vrnj5"><g style="opacity: 0.3; transform-origin: 362.055px 358.543px;" class="animable"><path d="M388.37,381.05c4,1.06,11.57,3.23,15.64,4.11,2.58.56,5.89.66,7.21-1.63,1.06-1.84.08-4.3-1.6-5.6s-3.85-1.73-5.92-2.16A193.12,193.12,0,0,1,349.89,356c-13.07-7.15-25.27-15.79-37.44-24.41C312.45,331.63,359.18,373.32,388.37,381.05Z" id="ele2rt10dyn4r" class="animable" style="transform-origin: 362.055px 358.543px;"></path></g></g><path d="M286,439.13c0,.21-4,.18-8.45,2.28s-6.91,5.35-7.05,5.19a8.51,8.51,0,0,1,1.68-2,18.68,18.68,0,0,1,11.21-5.4A9.12,9.12,0,0,1,286,439.13Z" style="fill: rgb(255, 255, 255); transform-origin: 278.25px 442.837px;" id="els4zo9j4vrsp" class="animable"></path><path d="M294.12,437c.05,0,.1.57-.37,1.32a3.8,3.8,0,0,1-1,1.1,6.59,6.59,0,0,1-4.94,1c-.85-.18-1.26-.56-1.23-.61s.5.17,1.29.25a7.67,7.67,0,0,0,3.07-.35,5.28,5.28,0,0,0,2.55-1.62C293.94,437.5,294,437,294.12,437Z" style="fill: rgb(255, 255, 255); transform-origin: 290.365px 438.771px;" id="elzxsr1pko9xo" class="animable"></path><path d="M327.07,424.47a6.37,6.37,0,0,1-1.39.14c-.89,0-2.18.16-3.76.36a51.41,51.41,0,0,0-5.49,1,54.8,54.8,0,0,0-6.53,2,55.86,55.86,0,0,0-6.18,2.9,49.75,49.75,0,0,0-4.73,3c-1.3.92-2.33,1.7-3,2.27a6.47,6.47,0,0,1-1.12.84,7.37,7.37,0,0,1,1-1,36,36,0,0,1,2.93-2.42,45.92,45.92,0,0,1,4.71-3.1,50.45,50.45,0,0,1,6.24-3,51,51,0,0,1,6.6-2,43.76,43.76,0,0,1,5.56-.9,35.12,35.12,0,0,1,3.8-.19A8.54,8.54,0,0,1,327.07,424.47Z" style="fill: rgb(255, 255, 255); transform-origin: 310.97px 430.675px;" id="el95oneh7olnd" class="animable"></path><path d="M366.4,414.25s0,.14,0,.4a9.83,9.83,0,0,1-.28,1.1,17.58,17.58,0,0,1-1.68,3.82,24.68,24.68,0,0,1-10.09,9.23,42.09,42.09,0,0,1-13.17,3.91c-1.74.25-3.16.38-4.14.45a7.74,7.74,0,0,1-1.53,0A10.11,10.11,0,0,1,337,433c1-.13,2.38-.32,4.11-.61a45.4,45.4,0,0,0,13-4,25.35,25.35,0,0,0,10-9A26.07,26.07,0,0,0,366.4,414.25Z" style="fill: rgb(255, 255, 255); transform-origin: 350.955px 423.724px;" id="el6m273e66avm" class="animable"></path><path d="M392.41,383a9.55,9.55,0,0,1-1.61.54,17.91,17.91,0,0,0-1.87.63,25.3,25.3,0,0,0-2.44,1l-1.38.62c-.49.22-1,.5-1.47.76-1,.5-2,1.17-3.13,1.84A40.69,40.69,0,0,0,368.82,400c-.67,1.09-1.34,2.11-1.84,3.13-.26.51-.54,1-.76,1.46s-.43.95-.62,1.39c-.43.88-.69,1.71-1,2.43a18.44,18.44,0,0,0-.62,1.88,10,10,0,0,1-.54,1.61,11.59,11.59,0,0,1,.34-1.66,14.39,14.39,0,0,1,.55-1.92,24.15,24.15,0,0,1,.9-2.48l.59-1.42c.21-.49.49-1,.74-1.49.5-1,1.16-2.08,1.83-3.19a39.41,39.41,0,0,1,11.83-11.83c1.11-.67,2.15-1.33,3.19-1.82.52-.26,1-.53,1.49-.74l1.42-.6a24.15,24.15,0,0,1,2.48-.9,14.18,14.18,0,0,1,1.92-.54A11,11,0,0,1,392.41,383Z" style="fill: rgb(255, 255, 255); transform-origin: 377.925px 397.45px;" id="elo1woh4tn5qp" class="animable"></path><path d="M403.13,375.26a3.49,3.49,0,0,1,.24,1.7,8.44,8.44,0,0,1-1.19,4,8.34,8.34,0,0,1-2.95,2.93,3.58,3.58,0,0,1-1.61.59,16.63,16.63,0,0,1,1.42-.91,9.38,9.38,0,0,0,4-6.62A12.76,12.76,0,0,1,403.13,375.26Z" style="fill: rgb(255, 255, 255); transform-origin: 400.505px 379.87px;" id="elx5bdshq6s" class="animable"></path><path d="M417.45,358.74c0,.08-1.23.57-3.16,1.6a34.43,34.43,0,0,0-12.47,11.3c-1.21,1.82-1.82,3-1.9,3a3.28,3.28,0,0,1,.35-.89,22,22,0,0,1,1.24-2.3A30.68,30.68,0,0,1,414.12,360a20.49,20.49,0,0,1,2.41-1A3.1,3.1,0,0,1,417.45,358.74Z" style="fill: rgb(255, 255, 255); transform-origin: 408.685px 366.69px;" id="eljbc8r7vwph" class="animable"></path><path d="M288.94,443s-.11-.12-.29-.35l-.8-1.07-3-4.12c-1.39-1.75-2.76-4.11-4.46-6.77-.81-1.35-1.79-2.74-2.64-4.32s-1.78-3.23-2.74-5c-2-3.45-3.8-7.42-5.89-11.61-.53-1-1-2.12-1.51-3.23s-1-2.22-1.49-3.36c-1-2.29-2.11-4.6-3.07-7.05-4.06-9.71-8-20.57-11.95-32.06-7.63-23.06-13.25-44.32-16.91-59.8-1.85-7.73-3.2-14-4.12-18.38-.43-2.16-.77-3.85-1-5-.11-.55-.19-1-.25-1.31s-.07-.44-.07-.44.05.14.12.43.18.75.3,1.3c.26,1.17.64,2.85,1.11,5,1,4.34,2.38,10.62,4.28,18.33,3.75,15.45,9.42,36.69,17,59.73,3.9,11.48,7.87,22.33,11.91,32,1,2.45,2.06,4.76,3,7.05l1.48,3.37c.47,1.11,1,2.19,1.49,3.23,2.07,4.19,3.85,8.16,5.83,11.61.94,1.75,1.85,3.41,2.7,5s1.8,3,2.6,4.34c1.68,2.67,3,5,4.37,6.81s2.27,3.19,3,4.17l.76,1.09C288.86,442.85,288.94,443,288.94,443Z" style="fill: rgb(38, 50, 56); transform-origin: 258.845px 361.065px;" id="el426ekk02mh4" class="animable"></path><path d="M274,440.92a2.59,2.59,0,0,1-1.88-.34,3.8,3.8,0,0,1-1.56-1.45,4,4,0,0,1-.54-2.56l0-.19,0-.26.26.05a4.46,4.46,0,0,1,2.27,1.14,4.4,4.4,0,0,1,1.12,1.72,2.86,2.86,0,0,1,.26,1.83c-.08,0-.12-.69-.59-1.68a4.48,4.48,0,0,0-1.11-1.52,4.24,4.24,0,0,0-2-1l.3-.21,0,.17a3.75,3.75,0,0,0,.44,2.25,3.71,3.71,0,0,0,1.32,1.37A9.27,9.27,0,0,0,274,440.92Z" style="fill: rgb(255, 255, 255); transform-origin: 271.994px 438.546px;" id="ellvcppgtk6i" class="animable"></path><path d="M290,438.78a2.54,2.54,0,0,1-1.88-.33,3.87,3.87,0,0,1-1.56-1.45,4.1,4.1,0,0,1-.54-2.56l0-.19,0-.26.26.05a4.46,4.46,0,0,1,2.27,1.14,4.4,4.4,0,0,1,1.12,1.72,2.86,2.86,0,0,1,.26,1.83,16.66,16.66,0,0,0-.59-1.69,4.54,4.54,0,0,0-1.11-1.51,4.24,4.24,0,0,0-2-1l.31-.21,0,.17a3.75,3.75,0,0,0,.44,2.25,3.71,3.71,0,0,0,1.32,1.37A8.73,8.73,0,0,0,290,438.78Z" style="fill: rgb(255, 255, 255); transform-origin: 287.996px 436.413px;" id="el40boa8y34un" class="animable"></path><path d="M280.72,440.92c0-.05.75.28,1.32,1.37a3.79,3.79,0,0,1,.4,2.09,4.08,4.08,0,0,1-1.07,2.39l-.14.14-.18.18-.19-.19a4.53,4.53,0,0,1-1.15-2.26,4.4,4.4,0,0,1,.11-2.05c.31-1.13.82-1.68.87-1.63a15.81,15.81,0,0,0-.52,1.71,4.52,4.52,0,0,0,0,1.87,4.27,4.27,0,0,0,1.07,2h-.37l.12-.12a3.68,3.68,0,0,0,.72-4A8.3,8.3,0,0,0,280.72,440.92Z" style="fill: rgb(255, 255, 255); transform-origin: 281.047px 444.003px;" id="el6kvve7iapvo" class="animable"></path><path d="M299.14,435c0-.05.75.29,1.33,1.38a3.86,3.86,0,0,1,.4,2.09,4.09,4.09,0,0,1-1.07,2.38l-.14.14-.19.19-.18-.2a4.39,4.39,0,0,1-1.16-2.26,4.54,4.54,0,0,1,.11-2.05,3,3,0,0,1,.87-1.63c.07.05-.31.63-.51,1.71a4.4,4.4,0,0,0,0,1.88,4.11,4.11,0,0,0,1.07,2h-.37l.12-.13a3.73,3.73,0,0,0,.72-4A8.43,8.43,0,0,0,299.14,435Z" style="fill: rgb(255, 255, 255); transform-origin: 299.473px 438.088px;" id="eljz00j3fpmgp" class="animable"></path><path d="M279.55,438.67a.52.52,0,1,1-1,0,.52.52,0,0,1,1,0Z" style="fill: rgb(255, 255, 255); transform-origin: 279.05px 438.813px;" id="elux5wftnf5ln" class="animable"></path><path d="M285.38,441.21a.52.52,0,1,1-.51-.52A.51.51,0,0,1,285.38,441.21Z" style="fill: rgb(255, 255, 255); transform-origin: 284.86px 441.21px;" id="el6oeqpj2zywx" class="animable"></path><path d="M302,430a2.57,2.57,0,0,1-1.89-.33,3.85,3.85,0,0,1-1.55-1.45,4,4,0,0,1-.54-2.56l0-.19,0-.26.26.05a4.46,4.46,0,0,1,2.27,1.14,4.56,4.56,0,0,1,1.12,1.72,3,3,0,0,1,.26,1.83c-.08,0-.12-.7-.59-1.69a4.54,4.54,0,0,0-1.11-1.51,4.19,4.19,0,0,0-2-1l.3-.21,0,.17a3.68,3.68,0,0,0,1.75,3.62A8.66,8.66,0,0,0,302,430Z" style="fill: rgb(255, 255, 255); transform-origin: 299.994px 427.633px;" id="eloqmkxcv6p5" class="animable"></path><circle cx="296.84" cy="432.05" r="0.52" style="fill: rgb(255, 255, 255); transform-origin: 296.84px 432.05px;" id="elderwgl8u3sa" class="animable"></circle><path d="M313.26,424.47a2.54,2.54,0,0,1-1.88-.33,3.78,3.78,0,0,1-1.55-1.45,4,4,0,0,1-.54-2.56l0-.19,0-.26.26.05a4.46,4.46,0,0,1,2.27,1.14,4.64,4.64,0,0,1,1.12,1.72,2.81,2.81,0,0,1,.25,1.83,14.8,14.8,0,0,0-.59-1.69,4.37,4.37,0,0,0-1.1-1.51,4.28,4.28,0,0,0-2-1l.3-.21,0,.17a3.71,3.71,0,0,0,1.76,3.62A8.21,8.21,0,0,0,313.26,424.47Z" style="fill: rgb(255, 255, 255); transform-origin: 311.259px 422.103px;" id="elkfbyj637mnh" class="animable"></path><circle cx="307.37" cy="426.26" r="0.52" style="fill: rgb(255, 255, 255); transform-origin: 307.37px 426.26px;" id="elf0tj9en4y1b" class="animable"></circle><circle cx="318.09" cy="423" r="0.52" style="fill: rgb(255, 255, 255); transform-origin: 318.09px 423px;" id="eloxkg9bzp18m" class="animable"></circle><path d="M346.93,430a2.54,2.54,0,0,1-1.88-.33,3.87,3.87,0,0,1-1.56-1.45,4,4,0,0,1-.54-2.56l0-.19,0-.26.26.05a4.46,4.46,0,0,1,2.27,1.14,4.33,4.33,0,0,1,1.12,1.72,2.86,2.86,0,0,1,.26,1.83c-.08,0-.12-.7-.59-1.69a4.54,4.54,0,0,0-1.11-1.51,4.19,4.19,0,0,0-2-1l.3-.21,0,.17a3.77,3.77,0,0,0,.44,2.25,3.71,3.71,0,0,0,1.32,1.37A8.73,8.73,0,0,0,346.93,430Z" style="fill: rgb(255, 255, 255); transform-origin: 344.924px 427.633px;" id="eljqrkm5mhl6" class="animable"></path><path d="M371.27,393.48a2.54,2.54,0,0,1-1.88-.33,3.8,3.8,0,0,1-1.56-1.45,4,4,0,0,1-.54-2.56l0-.19,0-.26.26.05a4.46,4.46,0,0,1,2.27,1.14A4.4,4.4,0,0,1,371,391.6a2.86,2.86,0,0,1,.26,1.83c-.08,0-.12-.69-.59-1.69a4.54,4.54,0,0,0-1.11-1.51,4.28,4.28,0,0,0-2-1l.3-.21,0,.17a3.68,3.68,0,0,0,.44,2.25,3.63,3.63,0,0,0,1.32,1.37A8,8,0,0,0,371.27,393.48Z" style="fill: rgb(255, 255, 255); transform-origin: 369.285px 391.113px;" id="elww09nvyxwoo" class="animable"></path><path d="M381.3,385.55a2.54,2.54,0,0,1-1.88-.33,3.88,3.88,0,0,1-1.55-1.46,4,4,0,0,1-.54-2.55l0-.2,0-.26.27.05a4.53,4.53,0,0,1,2.27,1.14,4.59,4.59,0,0,1,1.12,1.73,2.78,2.78,0,0,1,.25,1.82,15.13,15.13,0,0,0-.59-1.68,4.5,4.5,0,0,0-1.1-1.51,4.3,4.3,0,0,0-2-1l.3-.21,0,.17a3.81,3.81,0,0,0,.44,2.25,3.71,3.71,0,0,0,1.32,1.37A8.7,8.7,0,0,0,381.3,385.55Z" style="fill: rgb(255, 255, 255); transform-origin: 379.3px 383.178px;" id="elsdgt8pi5he9" class="animable"></path><path d="M399.28,371a2.61,2.61,0,0,1-1.89-.34,3.78,3.78,0,0,1-1.55-1.45,4,4,0,0,1-.54-2.55l0-.2,0-.26.26.05a4.46,4.46,0,0,1,2.27,1.14,4.52,4.52,0,0,1,1.12,1.72,2.86,2.86,0,0,1,.26,1.83c-.08,0-.12-.69-.59-1.68a4.48,4.48,0,0,0-1.11-1.52,4.38,4.38,0,0,0-2-1l.3-.21,0,.17a3.68,3.68,0,0,0,1.75,3.62A8.38,8.38,0,0,0,399.28,371Z" style="fill: rgb(255, 255, 255); transform-origin: 397.275px 368.626px;" id="elnybwlnhd21" class="animable"></path><path d="M408.9,361.46a2.54,2.54,0,0,1-1.88-.33,3.8,3.8,0,0,1-1.56-1.45,4.17,4.17,0,0,1-.54-2.56l0-.19,0-.26.27.05a4.46,4.46,0,0,1,2.26,1.14,4.55,4.55,0,0,1,1.13,1.72,2.89,2.89,0,0,1,.25,1.83,16.66,16.66,0,0,0-.59-1.69,4.65,4.65,0,0,0-1.1-1.51,4.27,4.27,0,0,0-2-1l.31-.21,0,.17a3.75,3.75,0,0,0,.44,2.25,3.79,3.79,0,0,0,1.32,1.37A8.73,8.73,0,0,0,408.9,361.46Z" style="fill: rgb(255, 255, 255); transform-origin: 406.897px 359.093px;" id="elz8d24deia2" class="animable"></path><path d="M338.8,430.65a.52.52,0,1,1-.52-.52A.51.51,0,0,1,338.8,430.65Z" style="fill: rgb(255, 255, 255); transform-origin: 338.28px 430.65px;" id="el3wbts4b51c9" class="animable"></path><path d="M348.16,434.18a.52.52,0,1,1-.51-.52A.52.52,0,0,1,348.16,434.18Z" style="fill: rgb(255, 255, 255); transform-origin: 347.64px 434.18px;" id="els5uot4wuc6" class="animable"></path><circle cx="362.01" cy="427.67" r="0.52" style="fill: rgb(255, 255, 255); transform-origin: 362.01px 427.67px;" id="eltij8c65kgi" class="animable"></circle><path d="M357.68,423.85a2.54,2.54,0,0,1-1.88-.33,3.9,3.9,0,0,1-1.56-1.46,4,4,0,0,1-.54-2.55l0-.2,0-.26.26.05a4.53,4.53,0,0,1,2.27,1.14,4.36,4.36,0,0,1,1.12,1.73,2.83,2.83,0,0,1,.26,1.82c-.08,0-.12-.69-.59-1.68A4.54,4.54,0,0,0,356,420.6a4.25,4.25,0,0,0-2-1l.3-.21,0,.17a3.78,3.78,0,0,0,.44,2.26,3.6,3.6,0,0,0,1.32,1.36A8.44,8.44,0,0,0,357.68,423.85Z" style="fill: rgb(255, 255, 255); transform-origin: 355.675px 421.478px;" id="el9bpqsnu2g1p" class="animable"></path><path d="M363,404.81a2.48,2.48,0,0,1-1.88-.33,3.78,3.78,0,0,1-1.55-1.45,4,4,0,0,1-.54-2.56l0-.19,0-.26.26.05a4.46,4.46,0,0,1,2.27,1.14,4.64,4.64,0,0,1,1.12,1.72,2.81,2.81,0,0,1,.25,1.83,15.13,15.13,0,0,0-.59-1.68,4.21,4.21,0,0,0-3.14-2.5l.3-.21,0,.17a3.71,3.71,0,0,0,1.76,3.62A8.21,8.21,0,0,0,363,404.81Z" style="fill: rgb(255, 255, 255); transform-origin: 360.999px 402.445px;" id="eleo1w2dtwbx9" class="animable"></path><path d="M353.35,426.7a.52.52,0,1,1-.51-.52A.51.51,0,0,1,353.35,426.7Z" style="fill: rgb(255, 255, 255); transform-origin: 352.83px 426.7px;" id="elyh5kt0bgho9" class="animable"></path><path d="M362,419.36a.52.52,0,1,1-.51-.52A.51.51,0,0,1,362,419.36Z" style="fill: rgb(255, 255, 255); transform-origin: 361.48px 419.36px;" id="el17xqqovqjua" class="animable"></path><circle cx="366.4" cy="396.93" r="0.52" style="fill: rgb(255, 255, 255); transform-origin: 366.4px 396.93px;" id="elb5jkvymjhfg" class="animable"></circle><path d="M369.82,407a.52.52,0,1,1-.51-.51A.51.51,0,0,1,369.82,407Z" style="fill: rgb(255, 255, 255); transform-origin: 369.3px 407.01px;" id="el8z3tl573r7w" class="animable"></path><path d="M376.4,387.92a.52.52,0,1,1-.52-.51A.52.52,0,0,1,376.4,387.92Z" style="fill: rgb(255, 255, 255); transform-origin: 375.88px 387.93px;" id="el4d0w0ix56iq" class="animable"></path><path d="M402.88,364.87a.52.52,0,1,1-.51-.51A.51.51,0,0,1,402.88,364.87Z" style="fill: rgb(255, 255, 255); transform-origin: 402.36px 364.88px;" id="elv9i36ecgfd" class="animable"></path><path d="M405.67,372a.52.52,0,1,1-.52-.51A.52.52,0,0,1,405.67,372Z" style="fill: rgb(255, 255, 255); transform-origin: 405.15px 372.01px;" id="el608f250jedr" class="animable"></path><circle cx="417.45" cy="362.59" r="0.52" style="fill: rgb(255, 255, 255); transform-origin: 417.45px 362.59px;" id="elmxyee31r9sq" class="animable"></circle><path d="M395,386.06a.52.52,0,1,1-.52-.51A.52.52,0,0,1,395,386.06Z" style="fill: rgb(255, 255, 255); transform-origin: 394.48px 386.07px;" id="elh6g0seoi04p" class="animable"></path><path d="M380,394.69a.52.52,0,1,1-.52-.52A.51.51,0,0,1,380,394.69Z" style="fill: rgb(255, 255, 255); transform-origin: 379.48px 394.69px;" id="el8ooug33ejf" class="animable"></path><circle cx="398.67" cy="379.29" r="0.52" style="fill: rgb(255, 255, 255); transform-origin: 398.67px 379.29px;" id="el59vru0fg568" class="animable"></circle><circle cx="292.56" cy="442.04" r="0.52" style="fill: rgb(255, 255, 255); transform-origin: 292.56px 442.04px;" id="elq43avvdb9fg" class="animable"></circle><path d="M275.16,446a.52.52,0,1,1-.52-.52A.51.51,0,0,1,275.16,446Z" style="fill: rgb(255, 255, 255); transform-origin: 274.64px 446px;" id="elm0vb5sahfb8" class="animable"></path><path d="M309.88,429.15s.75.28,1.33,1.38a4,4,0,0,1,.4,2.09,4,4,0,0,1-1.08,2.38l-.14.14-.18.18-.18-.19a4.47,4.47,0,0,1-1.16-2.26,4.4,4.4,0,0,1,.11-2.05c.31-1.13.82-1.67.87-1.63s-.32.63-.52,1.71a4.7,4.7,0,0,0,0,1.87,4.36,4.36,0,0,0,1.07,2H310l.12-.12a3.68,3.68,0,0,0,.72-4A7.72,7.72,0,0,0,309.88,429.15Z" style="fill: rgb(255, 255, 255); transform-origin: 310.21px 432.235px;" id="el315k02j35n9" class="animable"></path><path d="M321.26,426.18c0-.05.75.29,1.33,1.38a3.86,3.86,0,0,1,.4,2.09,4,4,0,0,1-1.08,2.38l-.13.14-.19.19-.18-.19a4.46,4.46,0,0,1-1.16-2.27,4.56,4.56,0,0,1,.11-2,2.87,2.87,0,0,1,.87-1.62c.07,0-.32.62-.52,1.7a4.74,4.74,0,0,0,0,1.88,4.28,4.28,0,0,0,1.07,2h-.36l.11-.12a3.7,3.7,0,0,0,.72-4A8.13,8.13,0,0,0,321.26,426.18Z" style="fill: rgb(255, 255, 255); transform-origin: 321.596px 429.268px;" id="elktkfjhvekm8" class="animable"></path><path d="M341.67,433.75c0-.05.75.29,1.33,1.38a3.86,3.86,0,0,1,.4,2.09,4,4,0,0,1-1.08,2.38l-.13.14-.19.19-.18-.19a4.47,4.47,0,0,1-1.16-2.26,4.54,4.54,0,0,1,.11-2.05c.31-1.13.83-1.68.87-1.63s-.31.63-.52,1.71a4.69,4.69,0,0,0,0,1.87,4.36,4.36,0,0,0,1.07,2h-.36l.12-.12a3.8,3.8,0,0,0,1-2.08,3.73,3.73,0,0,0-.26-1.88A8.46,8.46,0,0,0,341.67,433.75Z" style="fill: rgb(255, 255, 255); transform-origin: 342.003px 436.838px;" id="elddy1g3xi50p" class="animable"></path><path d="M355.26,430.56c0-.05.75.29,1.32,1.38A3.77,3.77,0,0,1,357,434a4,4,0,0,1-1.07,2.38l-.14.14-.18.19-.19-.2a4.63,4.63,0,0,1-1.16-2.26,4.54,4.54,0,0,1,.11-2,2.92,2.92,0,0,1,.87-1.63c.07,0-.31.63-.51,1.71a4.56,4.56,0,0,0,0,1.88,4.2,4.2,0,0,0,1.07,2h-.37l.12-.12a3.71,3.71,0,0,0,1-2.07,3.67,3.67,0,0,0-.25-1.89A9,9,0,0,0,355.26,430.56Z" style="fill: rgb(255, 255, 255); transform-origin: 355.604px 433.633px;" id="elllcvr0spses" class="animable"></path><path d="M366.4,423.76s.31-.74,1.42-1.29a3.82,3.82,0,0,1,2.1-.34,4.11,4.11,0,0,1,2.35,1.13l.14.15.18.18-.2.18a4.42,4.42,0,0,1-4.34.94c-1.12-.34-1.65-.87-1.6-.91s.62.33,1.69.56a4.67,4.67,0,0,0,1.88.05,4.36,4.36,0,0,0,2-1l0,.37-.12-.13a3.75,3.75,0,0,0-2-1,3.82,3.82,0,0,0-1.89.21A9.48,9.48,0,0,0,366.4,423.76Z" style="fill: rgb(255, 255, 255); transform-origin: 369.495px 423.513px;" id="elpgm34p02qy" class="animable"></path><path d="M371.55,401.63c-.05,0,.3-.74,1.41-1.29a3.82,3.82,0,0,1,2.1-.34,4,4,0,0,1,2.35,1.13l.14.14.18.19-.2.18a4.42,4.42,0,0,1-4.34.94c-1.12-.34-1.65-.87-1.6-.91s.62.33,1.69.56a4.51,4.51,0,0,0,1.88,0,4.25,4.25,0,0,0,2-1l0,.37-.12-.13a3.75,3.75,0,0,0-2.05-1,3.82,3.82,0,0,0-1.89.21A8.59,8.59,0,0,0,371.55,401.63Z" style="fill: rgb(255, 255, 255); transform-origin: 374.638px 401.383px;" id="el2j5i381oh0x" class="animable"></path><path d="M385.27,390.74s.3-.74,1.41-1.29a3.84,3.84,0,0,1,2.1-.34,4,4,0,0,1,2.35,1.13l.14.14.18.19-.2.18a4.44,4.44,0,0,1-2.29,1.1,4.56,4.56,0,0,1-2-.16c-1.12-.34-1.66-.87-1.61-.92a17,17,0,0,0,1.7.56,4.29,4.29,0,0,0,1.87.05,4.18,4.18,0,0,0,2-1v.37l-.12-.12a3.82,3.82,0,0,0-2-1,3.68,3.68,0,0,0-1.89.21A7.87,7.87,0,0,0,385.27,390.74Z" style="fill: rgb(255, 255, 255); transform-origin: 388.36px 390.489px;" id="elz6uhuxjf2b" class="animable"></path><path d="M405.85,381.24c-.05,0,.31-.74,1.42-1.29a3.82,3.82,0,0,1,2.1-.34,4,4,0,0,1,2.35,1.13l.14.14.18.19-.2.18a4.48,4.48,0,0,1-2.29,1.1,4.62,4.62,0,0,1-2.05-.16c-1.12-.34-1.65-.87-1.6-.92a15.57,15.57,0,0,0,1.69.57,4.47,4.47,0,0,0,1.87,0,4.24,4.24,0,0,0,2-1l0,.36-.12-.12a3.75,3.75,0,0,0-2.05-1,3.71,3.71,0,0,0-1.89.21A9.48,9.48,0,0,0,405.85,381.24Z" style="fill: rgb(255, 255, 255); transform-origin: 408.943px 380.991px;" id="elci6qe0jc7wd" class="animable"></path><path d="M408.44,366.87c-.05,0,.31-.75,1.41-1.29a3.85,3.85,0,0,1,2.1-.35,4.12,4.12,0,0,1,2.36,1.14l.13.14.18.19-.19.18a4.68,4.68,0,0,1-2.29,1.1,4.46,4.46,0,0,1-2.05-.17,3,3,0,0,1-1.61-.91c0-.06.62.33,1.7.56a4.62,4.62,0,0,0,1.87.05,4.27,4.27,0,0,0,2-1v.37l-.12-.12a3.69,3.69,0,0,0-3.94-.82A8.27,8.27,0,0,0,408.44,366.87Z" style="fill: rgb(255, 255, 255); transform-origin: 411.528px 366.617px;" id="eldw14uz0d3tt" class="animable"></path><path d="M304.79,434.18a.52.52,0,1,1-.51-.52A.52.52,0,0,1,304.79,434.18Z" style="fill: rgb(255, 255, 255); transform-origin: 304.27px 434.18px;" id="eljjzusey7mr" class="animable"></path><circle cx="314.58" cy="429.96" r="0.52" style="fill: rgb(255, 255, 255); transform-origin: 314.58px 429.96px;" id="el1jcnvx61mi2" class="animable"></circle><path d="M341.1,441.67s-.07-.07-.19-.23l-.53-.7c-.48-.66-1.15-1.57-2-2.74-1.73-2.37-4.18-5.84-7.17-10.16-6-8.63-14-20.71-22.51-34.32S293,367.34,287.89,358.16c-2.55-4.6-4.58-8.33-5.95-10.93-.67-1.27-1.19-2.28-1.57-3l-.4-.79-.12-.27s.07.08.17.25l.44.76,1.66,2.94c1.45,2.6,3.53,6.29,6.09,10.85,5.17,9.13,12.49,21.66,20.94,35.27s16.47,25.7,22.37,34.38l7,10.26c.82,1.18,1.46,2.12,1.91,2.79l.49.73C341.06,441.58,341.11,441.66,341.1,441.67Z" style="fill: rgb(38, 50, 56); transform-origin: 310.476px 392.42px;" id="ellrbtmunu8ul" class="animable"></path><g id="el9urhj9sgcqi"><g style="opacity: 0.3; transform-origin: 283.865px 290.792px;" class="animable"><path d="M242.29,261.43c12.36,16.94,25.22,32.42,41.64,45.45,5,4,10.21,7.76,16.06,10.3s12.42,3.76,18.66,2.43a9.6,9.6,0,0,0,5.18-2.55c2.36-2.59,1.92-6.83,0-9.73s-5.08-4.77-8.1-6.54c-24-14.09-49.38-25.27-73.4-39.36" id="elk1pn7m9myr" class="animable" style="transform-origin: 283.865px 290.792px;"></path></g></g><g id="elvsyzo656ms"><g style="opacity: 0.3; transform-origin: 242.77px 252.111px;" class="animable"><path d="M213.82,250.24c1.11,5.47,5.21,12.65,10.49,14.43s11.17,0,16.24-2.45c6.76-3.22,13-7.45,19.18-11.67a61.76,61.76,0,0,0,5.79-4.28,9.86,9.86,0,0,0,1.2-1.44c1.95-2.47,5-6,5-6l-8,4.5-23.62,12.89c-4.1,2.23-8.42,4.53-13.09,4.54-6,0-11.24-4.49-13-10.23" id="el6c1fdst99am" class="animable" style="transform-origin: 242.77px 252.111px;"></path></g></g><path d="M259.94,129.7a2.33,2.33,0,0,0-.3-.8,4.8,4.8,0,0,0-1.95-1.5,30.26,30.26,0,0,0-8.93-2.22,75.31,75.31,0,0,0-13.72-.34,57.08,57.08,0,0,0-8,1.07,25.27,25.27,0,0,0-4.07,1.22,9.49,9.49,0,0,0-1.89,1,1.68,1.68,0,0,0,0,3.15,9.22,9.22,0,0,0,1.89,1,24.93,24.93,0,0,0,4.07,1.21,57,57,0,0,0,8,1.08,74.34,74.34,0,0,0,13.72-.35,29.64,29.64,0,0,0,8.93-2.22,4.88,4.88,0,0,0,1.95-1.49,2.26,2.26,0,0,0,.3-.81.68.68,0,0,1,0,.23,1.63,1.63,0,0,1-.21.63,4.61,4.61,0,0,1-2,1.62,28.57,28.57,0,0,1-9,2.41A71.74,71.74,0,0,1,235,135a55.36,55.36,0,0,1-8.1-1,24.92,24.92,0,0,1-4.16-1.23,10.11,10.11,0,0,1-2-1.06,2.18,2.18,0,0,1,0-4,9.8,9.8,0,0,1,2-1.06,24.75,24.75,0,0,1,4.17-1.23,53.8,53.8,0,0,1,8.09-1.06,71.67,71.67,0,0,1,13.79.46,28.88,28.88,0,0,1,9,2.4,4.76,4.76,0,0,1,2,1.62,1.67,1.67,0,0,1,.21.64C260,129.63,260,129.7,259.94,129.7Z" style="fill: rgb(38, 50, 56); transform-origin: 239.714px 129.687px;" id="elj1h216qbid" class="animable"></path><path d="M215,220.23a136.32,136.32,0,0,0,13.56-2.67S244.8,205,247.53,205s4.23-4.06,11.87-4.24,12.5,10.78,11.41,21.34a58.93,58.93,0,0,1-5.27,18.73S248,254.54,235.73,259.53a19,19,0,0,1-8.61,1.41c-7.19-.67-11.27-7.09-12.94-10.49a10.17,10.17,0,0,1-1-3.82l.11-2.81-.86-9.22Z" style="fill: rgb(126, 87, 194); transform-origin: 241.696px 230.872px;" id="elvh66hbm1lg" class="animable"></path><path d="M223.1,220.23H200.19l-9.26-30.35-10.3-.26s-.36,40.25,5.84,45.68,35.74,12,42,8A54.83,54.83,0,0,0,223.1,220.23Z" style="fill: rgb(255, 190, 157); transform-origin: 204.548px 217.075px;" id="el16xpmhe9idm" class="animable"></path><g id="el7cknwvs95x7"><g style="opacity: 0.3; transform-origin: 265.104px 224.995px;" class="animable"><path d="M280.35,236c-1.78-4.26-3.18-8.55-5.41-12.63-3.77-6.88-8.65-13.28-15-17.86l-14-.31a4.16,4.16,0,0,0,.93,3.82,14.92,14.92,0,0,0,3.13,2.62c4.79,3.39,8.93,7.61,13,11.8,7,7.19,14.35,14.15,21.4,21.35C284.38,244.76,281.58,238.9,280.35,236Z" id="el8bol26g8xic" class="animable" style="transform-origin: 265.104px 224.995px;"></path></g></g><path d="M227.31,259.53a9.66,9.66,0,0,1,.25-1.62c.1-.51.22-1.14.33-1.88s.26-1.58.35-2.51a62.08,62.08,0,0,0,.45-6.57,65.41,65.41,0,0,0-.42-8A64.72,64.72,0,0,0,226.8,231a62.79,62.79,0,0,0-2-6.28c-.31-.89-.65-1.66-.93-2.35s-.53-1.29-.75-1.76a10.75,10.75,0,0,1-.63-1.52,9.75,9.75,0,0,1,.81,1.43c.25.47.54,1,.84,1.73s.67,1.45,1,2.34a55,55,0,0,1,2.09,6.29,63.28,63.28,0,0,1,1.52,8,62.44,62.44,0,0,1,.38,8.11,55.5,55.5,0,0,1-.57,6.61c-.11.94-.29,1.77-.43,2.51s-.28,1.36-.41,1.87A10.82,10.82,0,0,1,227.31,259.53Z" style="fill: rgb(38, 50, 56); transform-origin: 225.815px 239.31px;" id="el5zh7st4qo2v" class="animable"></path><path d="M229.8,217.7c0,.16-3.48,0-7.68.74s-7.47,1.91-7.52,1.76a7.57,7.57,0,0,1,2.09-.92,32.54,32.54,0,0,1,10.83-1.78A8,8,0,0,1,229.8,217.7Z" style="fill: rgb(38, 50, 56); transform-origin: 222.2px 218.85px;" id="elp8ybki99rqp" class="animable"></path><path d="M236.36,230.26c-.15.05-1.18-2.86-2.89-6.25s-3.4-6-3.27-6.06a6.87,6.87,0,0,1,1.27,1.59,37.39,37.39,0,0,1,2.47,4.24,36.26,36.26,0,0,1,1.9,4.51A6.63,6.63,0,0,1,236.36,230.26Z" style="fill: rgb(38, 50, 56); transform-origin: 233.276px 224.105px;" id="elqtqshiylxy" class="animable"></path><path d="M244.69,244.52a5.06,5.06,0,0,1-.46-1.07c-.25-.71-.64-1.72-1.12-3A95,95,0,0,0,233.47,222c-.74-1.11-1.36-2-1.79-2.62a5.74,5.74,0,0,1-.62-1,5.09,5.09,0,0,1,.79.87c.48.58,1.14,1.45,1.92,2.54a75,75,0,0,1,5.49,9,73.39,73.39,0,0,1,4.19,9.63c.45,1.27.78,2.31,1,3A5.47,5.47,0,0,1,244.69,244.52Z" style="fill: rgb(38, 50, 56); transform-origin: 237.875px 231.45px;" id="elck4e588pf4i" class="animable"></path><path d="M273.53,237.73a3.56,3.56,0,0,1-.64.44L271,239.33l-7,4.19c-5.93,3.52-14.11,8.37-23.22,13.65a37.31,37.31,0,0,1-7,3.18,17.38,17.38,0,0,1-7.16.78,15.09,15.09,0,0,1-13.31-13.54,14.24,14.24,0,0,1,0-2.23,4.25,4.25,0,0,1,.1-.77,3.86,3.86,0,0,1,0,.78,17.35,17.35,0,0,0,.14,2.2,15.38,15.38,0,0,0,3,7.39,15,15,0,0,0,10.13,5.69,16.63,16.63,0,0,0,7-.79,37.73,37.73,0,0,0,6.93-3.14l23.29-13.51,7.08-4.05,1.94-1.08A5.83,5.83,0,0,1,273.53,237.73Z" style="fill: rgb(38, 50, 56); transform-origin: 243.398px 249.474px;" id="el8ycrypkqwmt" class="animable"></path><path d="M234.22,259.08a11.52,11.52,0,0,1,.23-1.67c.2-1.06.41-2.62.6-4.54a54.59,54.59,0,0,0,.22-6.78,56.08,56.08,0,0,0-.9-8.25,59.29,59.29,0,0,0-2.17-8,61.16,61.16,0,0,0-2.63-6.26c-.86-1.73-1.59-3.12-2.14-4.05a10.7,10.7,0,0,1-.79-1.49,10.14,10.14,0,0,1,1,1.38,44.26,44.26,0,0,1,2.3,4,52.84,52.84,0,0,1,5,14.33,54.05,54.05,0,0,1,.86,8.33,50.09,50.09,0,0,1-.33,6.83,42,42,0,0,1-.77,4.54A9.15,9.15,0,0,1,234.22,259.08Z" style="fill: rgb(255, 255, 255); transform-origin: 231.225px 238.56px;" id="elop4qtr2y7yc" class="animable"></path><path d="M253.52,239.78c-.14,0-.26-4.64-.26-10.37s.12-10.37.26-10.37.26,4.64.26,10.37S253.66,239.78,253.52,239.78Z" style="fill: rgb(255, 255, 255); transform-origin: 253.52px 229.41px;" id="elmwrcewvwor" class="animable"></path><path d="M262.68,234.77c-.07.12-4.23-2.16-9.29-5.09a103,103,0,0,1-9-5.54c.07-.12,4.23,2.16,9.29,5.09A104.87,104.87,0,0,1,262.68,234.77Z" style="fill: rgb(255, 255, 255); transform-origin: 253.535px 229.455px;" id="elz8cvzl2v8qo" class="animable"></path><path d="M244.58,234.49c-.07-.12,3.88-2.46,8.81-5.22a101.75,101.75,0,0,1,9.06-4.76,98.41,98.41,0,0,1-8.8,5.22A98,98,0,0,1,244.58,234.49Z" style="fill: rgb(255, 255, 255); transform-origin: 253.515px 229.5px;" id="el9e03hloalr8" class="animable"></path><path d="M256,223.79a11.43,11.43,0,0,1-2.24,2.63h0l-.18.19-.19-.19a11.71,11.71,0,0,1-2.19-2.64,11.65,11.65,0,0,1,2.57,2.28h-.36A11.7,11.7,0,0,1,256,223.79Z" style="fill: rgb(255, 255, 255); transform-origin: 253.6px 225.195px;" id="el3afzvbx8zaj" class="animable"></path><path d="M255.15,221.16c.1.1-.51.89-1.38,1.76l0,0-.18.18-.18-.17c-.88-.82-1.5-1.56-1.41-1.66s.88.46,1.77,1.28h-.37l0,0C254.27,221.69,255.05,221.06,255.15,221.16Z" style="fill: rgb(255, 255, 255); transform-origin: 253.576px 222.125px;" id="elg4s2kmddqdj" class="animable"></path><path d="M259.87,228.6a11.51,11.51,0,0,1-3.38-.69h0l-.25-.07.07-.26a11.5,11.5,0,0,1,1.24-3.2,11.19,11.19,0,0,1-.74,3.35l-.18-.32h0A11.55,11.55,0,0,1,259.87,228.6Z" style="fill: rgb(255, 255, 255); transform-origin: 258.055px 226.49px;" id="elfy11agbaj09" class="animable"></path><path d="M261.78,226.61a4.8,4.8,0,0,1-2.21-.35h-.05l-.25-.07.07-.24c.29-1.17.63-2.08.77-2a4.69,4.69,0,0,1-.27,2.16l-.18-.31h0A5.25,5.25,0,0,1,261.78,226.61Z" style="fill: rgb(255, 255, 255); transform-origin: 260.525px 225.285px;" id="elxjhjeja50if" class="animable"></path><path d="M257.38,234.39a11.59,11.59,0,0,1-1.3-3.19v0l-.08-.25.25-.08a11.25,11.25,0,0,1,3.35-.74,11.87,11.87,0,0,1-3.2,1.24l.18-.33v0A11.28,11.28,0,0,1,257.38,234.39Z" style="fill: rgb(255, 255, 255); transform-origin: 257.8px 232.26px;" id="el9fv25qrwf2" class="animable"></path><path d="M259.73,234.88a5.19,5.19,0,0,1-.93-2l0-.06-.08-.24.24-.08a4.77,4.77,0,0,1,2.13-.49,4.91,4.91,0,0,1-1.95,1l.16-.33v.06A4.87,4.87,0,0,1,259.73,234.88Z" style="fill: rgb(255, 255, 255); transform-origin: 259.905px 233.445px;" id="elcgyjujv5jfg" class="animable"></path><path d="M251.11,235.24a12,12,0,0,1,2.16-2.69h0l.18-.2.19.19a11.28,11.28,0,0,1,2.27,2.56,11.15,11.15,0,0,1-2.63-2.19h.37l0,0A11.36,11.36,0,0,1,251.11,235.24Z" style="fill: rgb(255, 255, 255); transform-origin: 253.51px 233.795px;" id="elzbvdpfnctb" class="animable"></path><path d="M252,237.53c-.11-.1.48-.9,1.32-1.8l0,0,.17-.19.19.17c.9.79,1.55,1.52,1.46,1.62s-.89-.44-1.8-1.23l.36,0,0,.05C252.84,237,252.07,237.63,252,237.53Z" style="fill: rgb(255, 255, 255); transform-origin: 253.568px 236.54px;" id="el7mf5n935zl5" class="animable"></path><path d="M247.29,230.12a11.32,11.32,0,0,1,3.37.72h0l.25.07-.08.26a12,12,0,0,1-1.27,3.18,11.28,11.28,0,0,1,.78-3.34l.17.33h0A12,12,0,0,1,247.29,230.12Z" style="fill: rgb(255, 255, 255); transform-origin: 249.1px 232.235px;" id="elypx83empj39" class="animable"></path><path d="M245.62,231.91a4.94,4.94,0,0,1,2.2.37l.06,0,.24.07-.06.24c-.31,1.17-.66,2.07-.8,2a4.71,4.71,0,0,1,.29-2.16l.18.32,0,0A5,5,0,0,1,245.62,231.91Z" style="fill: rgb(255, 255, 255); transform-origin: 246.87px 233.247px;" id="elmls57bgpi8" class="animable"></path><path d="M249.94,224.24a11.71,11.71,0,0,1,.94,3.32v0l.05.26-.26,0a11.52,11.52,0,0,1-3.41.36,11.63,11.63,0,0,1,3.32-.87l-.21.3v0A11.54,11.54,0,0,1,249.94,224.24Z" style="fill: rgb(255, 255, 255); transform-origin: 249.095px 226.216px;" id="elwdbb3zclr6" class="animable"></path><path d="M247.31,223.92a5.17,5.17,0,0,1,.7,2.13v0l0,.25-.25.06a4.83,4.83,0,0,1-2.16.25,4.89,4.89,0,0,1,2-.76l-.19.31v-.06A4.92,4.92,0,0,1,247.31,223.92Z" style="fill: rgb(255, 255, 255); transform-origin: 246.805px 225.28px;" id="el9ka6nejlmos" class="animable"></path><path d="M246.17,205.48a19.91,19.91,0,0,1-2.36,1.57c-1.46.94-3.46,2.28-5.6,3.85s-4,3.08-5.37,4.17a17.08,17.08,0,0,1-2.25,1.71,13.65,13.65,0,0,1,2-2c1.3-1.17,3.16-2.72,5.31-4.31a62.23,62.23,0,0,1,5.71-3.75A12.79,12.79,0,0,1,246.17,205.48Z" style="fill: rgb(38, 50, 56); transform-origin: 238.38px 211.13px;" id="el995ejwphhbg" class="animable"></path><path d="M125.81,155.81l4.85,4.56s-.28,7.14-.85,8.56-4,6.85-4,6.85l-7.7,4.28s-4.43-4.56-4.43-6.56-.71-10.56-.71-10.56l-3.28-6.56s0-5.42,4.28-3.42c0,0,3.85-2.86,6.21.28C120.18,153.24,124.24,151.67,125.81,155.81Z" style="fill: rgb(255, 190, 157); transform-origin: 120.175px 165.914px;" id="elq0du359cxok" class="animable"></path><path d="M38.31,121.64c0,.51,10.39,14,20.45,18,10.32,4,167.48,41.57,167.48,41.57l3.12-1-1.22,6.56-2.22-2.46L72.61,153.7s-25-6.9-40.48,5.66Z" style="fill: rgb(126, 87, 194); transform-origin: 130.745px 154.205px;" id="el6hmd9bo9zko" class="animable"></path><path d="M30.66,140.1c-2.25,10.09-1.55,19.18.49,19.64s4.65-7.89,6.9-18,1.75-19.61.26-20.11C36.33,121,32.92,130,30.66,140.1Z" style="fill: rgb(126, 87, 194); transform-origin: 34.4249px 140.678px;" id="elnrjvflipubh" class="animable"></path><g id="elv6311xnf41r"><path d="M30.66,140.1c-2.25,10.09-1.55,19.18.49,19.64s4.65-7.89,6.9-18,1.75-19.61.26-20.11C36.33,121,32.92,130,30.66,140.1Z" style="opacity: 0.3; transform-origin: 34.4249px 140.678px;" class="animable"></path></g><path d="M39,122.69a7.5,7.5,0,0,1,.24,1.47,39.22,39.22,0,0,1,.3,4,64.53,64.53,0,0,1-1,13.32,60.24,60.24,0,0,1-3.73,12.83q-.49,1.18-1,2.1c-.3.61-.56,1.13-.81,1.55a7.68,7.68,0,0,1-.78,1.26,9,9,0,0,1,.6-1.36c.22-.42.45-1,.72-1.58s.58-1.32.89-2.11A67.65,67.65,0,0,0,38,141.43a73.17,73.17,0,0,0,1.16-13.23c0-1.7-.06-3.08-.13-4A8.74,8.74,0,0,1,39,122.69Z" style="fill: rgb(38, 50, 56); transform-origin: 35.8933px 140.955px;" id="elpx2muyb2wa" class="animable"></path><path d="M83.71,148.34a9.64,9.64,0,0,1-1.47-.16c-.93-.13-2.28-.36-3.95-.68a114.2,114.2,0,0,1-12.79-3.34,115.11,115.11,0,0,1-12.31-4.82c-1.54-.72-2.77-1.32-3.6-1.77a7.16,7.16,0,0,1-1.28-.74,8,8,0,0,1,1.37.56c.86.39,2.11.94,3.66,1.61,3.09,1.34,7.43,3.07,12.32,4.66s9.42,2.74,12.71,3.47c1.65.38,3,.66,3.91.85A8.12,8.12,0,0,1,83.71,148.34Z" style="fill: rgb(255, 255, 255); transform-origin: 66.01px 142.585px;" id="el9zkrfib0uz4" class="animable"></path><path d="M92.26,150.29a7.34,7.34,0,0,1-2.7-.33,7.11,7.11,0,0,1-2.59-.83,7.34,7.34,0,0,1,2.7.33A7.34,7.34,0,0,1,92.26,150.29Z" style="fill: rgb(255, 255, 255); transform-origin: 89.615px 149.71px;" id="el3wszliidipa" class="animable"></path><path d="M45.53,134.61c-.11.09-1-.77-1.91-1.92a7.35,7.35,0,0,1-1.51-2.25c.11-.09,1,.77,1.91,1.92A7.13,7.13,0,0,1,45.53,134.61Z" style="fill: rgb(255, 255, 255); transform-origin: 43.82px 132.525px;" id="el1eyvyy5c1l2" class="animable"></path><path d="M118.14,171.36a5.56,5.56,0,0,1,2.44-4.94c1-.64,2.14-1,3.14-1.56a3.1,3.1,0,0,0,1.7-2.84,21,21,0,0,1-3.88-5.22,2.22,2.22,0,0,1,2.79-.9,12.58,12.58,0,0,1,2.72,1.72,10.59,10.59,0,0,1,2.64,1.92,5.51,5.51,0,0,1,.72,4.33,18.06,18.06,0,0,0-.58,4.48" style="fill: rgb(255, 190, 157); transform-origin: 124.352px 163.538px;" id="el46k2hf46zfa" class="animable"></path><path d="M129.83,168.35a1.09,1.09,0,0,1-.07-.38,5.63,5.63,0,0,1,0-1.1c.05-1,.45-2.3.58-4a5.39,5.39,0,0,0-.43-2.61,4.9,4.9,0,0,0-2.23-2c-1-.53-1.91-1.4-2.93-1.93a2.74,2.74,0,0,0-1.65-.33,1.6,1.6,0,0,0-1.32.87v-.22l.12.22a21.18,21.18,0,0,0,3.7,4.95l.06.06V162a3,3,0,0,1-1.14,2.56,7.88,7.88,0,0,1-2.19,1.22,8.8,8.8,0,0,0-1.89,1,5.23,5.23,0,0,0-1.25,1.29,5.81,5.81,0,0,0-1,2.38c-.09.6-.07.94-.1.94a2.37,2.37,0,0,1-.06-1,5.53,5.53,0,0,1,2.14-3.95,8.59,8.59,0,0,1,1.94-1.07,7.8,7.8,0,0,0,2-1.18,2.54,2.54,0,0,0,1-2.15l.07.14a21.44,21.44,0,0,1-3.81-5l-.12-.23-.06-.11,0-.11a2.09,2.09,0,0,1,1.73-1.18,3.23,3.23,0,0,1,2,.38c1.14.62,2,1.45,2.94,2a5.31,5.31,0,0,1,2.38,2.23,5.62,5.62,0,0,1,.4,2.82c-.18,1.73-.63,3-.74,4S129.88,168.35,129.83,168.35Z" style="fill: rgb(235, 153, 110); transform-origin: 124.34px 163.456px;" id="elb2imzslqnu" class="animable"></path><path d="M114.79,152.84a4,4,0,0,0-2,2.92,2.49,2.49,0,0,0,2,2.65,2.87,2.87,0,0,0,2.32-1,14.7,14.7,0,0,0,1.47-2.19,4.61,4.61,0,0,1,1.85-1.84" style="fill: rgb(255, 190, 157); transform-origin: 116.606px 155.627px;" id="eluni7qg12e3n" class="animable"></path><path d="M120.45,153.35A6.43,6.43,0,0,0,119,155c-.37.56-.72,1.3-1.26,2.07a3.54,3.54,0,0,1-2.58,1.66,2.2,2.2,0,0,1-1.59-.57,2.87,2.87,0,0,1-.83-1.29,3,3,0,0,1,.36-2.49,4,4,0,0,1,1.15-1.22c.33-.22.53-.3.55-.27a9,9,0,0,0-1.38,1.67,2.73,2.73,0,0,0-.22,2.16,2,2,0,0,0,1.93,1.49,3.15,3.15,0,0,0,2.23-1.42c.52-.71.91-1.44,1.33-2C119.51,153.57,120.44,153.27,120.45,153.35Z" style="fill: rgb(235, 153, 110); transform-origin: 116.533px 155.808px;" id="elxm7kaj0p4b" class="animable"></path><path d="M121.06,153.16a10.72,10.72,0,0,0-2.35,1.89,3.61,3.61,0,0,0-.94,2.78,2.22,2.22,0,0,0,2,1.93,3.2,3.2,0,0,0,1.72-.67,12.74,12.74,0,0,0,3.83-4.07" style="fill: rgb(255, 190, 157); transform-origin: 121.537px 156.46px;" id="el1hllsnnyk67" class="animable"></path><path d="M125.33,155A6.08,6.08,0,0,1,124,157.1a11.89,11.89,0,0,1-1.93,1.85,7,7,0,0,1-1.37.86,2.2,2.2,0,0,1-1.83,0,2.56,2.56,0,0,1-1.22-1.34,2.84,2.84,0,0,1-.12-1.67,4.41,4.41,0,0,1,1.43-2.32,8.58,8.58,0,0,1,1.46-1c.37-.22.58-.31.6-.28s-.75.57-1.81,1.59a4.31,4.31,0,0,0-1.21,2.14,2.46,2.46,0,0,0,.12,1.39,2.11,2.11,0,0,0,1,1.06c.93.47,1.92-.23,2.68-.77a13.74,13.74,0,0,0,1.94-1.71C124.78,155.78,125.25,155,125.33,155Z" style="fill: rgb(235, 153, 110); transform-origin: 121.393px 156.602px;" id="el1tcpb6fiwgc" class="animable"></path><path d="M111.8,152.69a4.37,4.37,0,0,0-2.31,2.57,2.48,2.48,0,0,0-.11,1.32,1.38,1.38,0,0,0,.82,1,1.85,1.85,0,0,0,1.84-.74,10.27,10.27,0,0,0,1.86-4.08" style="fill: rgb(255, 190, 157); transform-origin: 111.618px 155.151px;" id="el8j87bv8tmhf" class="animable"></path><path d="M113.9,152.75a5.37,5.37,0,0,1-.4,1.85,7,7,0,0,1-.9,1.89,3.8,3.8,0,0,1-.86.95,1.81,1.81,0,0,1-1.39.43,1.48,1.48,0,0,1-1.13-1,2.26,2.26,0,0,1-.06-1.33,4.27,4.27,0,0,1,1-1.87,2.8,2.8,0,0,1,1.63-1,12.77,12.77,0,0,0-1.35,1.25,4.29,4.29,0,0,0-.82,1.73,1.83,1.83,0,0,0,.06,1,1,1,0,0,0,.74.65,1.45,1.45,0,0,0,1-.33,3.94,3.94,0,0,0,.77-.81,8.74,8.74,0,0,0,1-1.75A8.5,8.5,0,0,1,113.9,152.75Z" style="fill: rgb(235, 153, 110); transform-origin: 111.494px 155.276px;" id="eltvml94nm6co" class="animable"></path><path d="M180.63,189.62s-4-2.28-3.23-5.51S179,171.19,179,171.19s3.39-2.31,5-1c0,0,3-1.33,4.87.19,0,0,.93-3,3.78-.73s2.1,6.44,2.1,6.44l-4.19,14.66Z" style="fill: rgb(255, 190, 157); transform-origin: 186.07px 179.775px;" id="elpdwqrci0ni9" class="animable"></path><path d="M345.15,271.91c-.62-7.56-4.34-14.6-9.2-20.43s-10.85-10.59-16.79-15.3q-11.71-9.3-23.42-18.61c-7.15-5.67-20.76-16.37-29.68-18.3-17-3.66-20.43,6.37-20.43,6.37,15,6.19,58.62,50.53,66.52,57.21s18.23,20.36,4,20.06-51.89-39.73-51.89-39.73L238.66,258l37,36c10.61,8.81,23.08,15.76,36.65,18.23,5.15.94,10.84,1.12,15.22-1.74,2.74-1.78,4.65-4.55,6.45-7.27C340.21,293.79,346.09,283.17,345.15,271.91Z" style="fill: rgb(69, 90, 100); transform-origin: 291.955px 255.657px;" id="elxlapkpwykdk" class="animable"></path><path d="M345.66,272.36a15,15,0,0,1-2.14,3.28,21.94,21.94,0,0,1-8.68,6.14,26.58,26.58,0,0,1-7.2,1.72,29.44,29.44,0,0,1-8.48.19c-6-.85-12.08-3.69-17.88-7.37-11.55-7.57-20.62-16.24-27-22.58L272,251.48c-.71-.72-1.36-1.43-2-2.07-1.23-1.29-2.28-2.41-3.16-3.34l-2-2.12-.5-.56c-.11-.13-.17-.2-.16-.21l.2.17.54.53,2.05,2.05,3.22,3.27,2,2.05,2.31,2.22c6.43,6.27,15.53,14.88,27,22.41,5.77,3.66,11.81,6.47,17.66,7.34a29.49,29.49,0,0,0,8.37-.15,26.22,26.22,0,0,0,7.11-1.63,22.33,22.33,0,0,0,8.67-5.93,20.2,20.2,0,0,0,1.73-2.31l.4-.63C345.6,272.42,345.65,272.35,345.66,272.36Z" style="fill: rgb(38, 50, 56); transform-origin: 304.919px 263.545px;" id="elyge5gdfyml" class="animable"></path><path d="M264.71,265.05a3.47,3.47,0,0,1,.68.4l1.88,1.24c1.63,1.07,4,2.62,7,4.47a250.59,250.59,0,0,0,23.87,13.15c4.8,2.32,9.44,4.37,13.71,6.12a60.25,60.25,0,0,0,11.63,3.7,26.33,26.33,0,0,0,8.18.34c1.93-.27,3-.63,3-.56a5.59,5.59,0,0,1-.74.25,16.83,16.83,0,0,1-2.2.51,25.12,25.12,0,0,1-8.28-.17,58.66,58.66,0,0,1-11.74-3.63c-4.29-1.73-8.95-3.77-13.76-6.09A223.86,223.86,0,0,1,274,271.47c-2.95-1.89-5.28-3.49-6.88-4.61l-1.82-1.32A6.33,6.33,0,0,1,264.71,265.05Z" style="fill: rgb(38, 50, 56); transform-origin: 299.685px 279.992px;" id="el9bdtwsfaoje" class="animable"></path><g id="el64qpzjyc59a"><g style="opacity: 0.3; transform-origin: 294.461px 247.608px;" class="animable"><path d="M327.6,261.43c-4.89-8.08-12.24-11.39-19.54-17.38-8.52-7-18.21-12.4-27.84-17.76-8.55-4.75-16.07-9.68-24.61-14.44l23.64,19.83C291.89,243,303.32,255.12,316,266.46c2.71,2.42,6.14,7.34,7.08,10.85s-2,5.29-5.63,5.65a56.36,56.36,0,0,0,12,.16c3.86-.36,4.3-2.42,3.57-7a32.94,32.94,0,0,0-1.07-5.72A45.07,45.07,0,0,0,327.6,261.43Z" id="elixpso6r4dc" class="animable" style="transform-origin: 294.461px 247.608px;"></path></g></g><path d="M332.85,282.4a1,1,0,0,1,0-.28l.07-.83a30.24,30.24,0,0,0,.05-3.2,29.49,29.49,0,0,0-2.62-11.36,41.15,41.15,0,0,0-10.57-13.66c-4.88-4.4-10.92-8.4-17.17-12.72-12.52-8.61-24.18-15.91-32.85-20.81-4.32-2.46-7.88-4.35-10.34-5.66l-2.84-1.48-.73-.4c-.16-.09-.25-.14-.24-.15l.26.1.76.35,2.89,1.4c2.48,1.25,6.07,3.1,10.43,5.52,8.72,4.82,20.43,12.08,33,20.7,6.24,4.32,12.3,8.34,17.19,12.79a41.2,41.2,0,0,1,10.59,13.87,29,29,0,0,1,2.49,11.51,27.42,27.42,0,0,1-.16,3.21c0,.36-.09.64-.11.82A1,1,0,0,1,332.85,282.4Z" style="fill: rgb(38, 50, 56); transform-origin: 294.415px 247.125px;" id="elxv3d4rup8m" class="animable"></path></g><defs>     <filter id="active" height="200%">         <feMorphology in="SourceAlpha" result="DILATED" operator="dilate" radius="2"></feMorphology>                <feFlood flood-color="#32DFEC" flood-opacity="1" result="PINK"></feFlood>        <feComposite in="PINK" in2="DILATED" operator="in" result="OUTLINE"></feComposite>        <feMerge>            <feMergeNode in="OUTLINE"></feMergeNode>            <feMergeNode in="SourceGraphic"></feMergeNode>        </feMerge>    </filter>    <filter id="hover" height="200%">        <feMorphology in="SourceAlpha" result="DILATED" operator="dilate" radius="2"></feMorphology>                <feFlood flood-color="#ff0000" flood-opacity="0.5" result="PINK"></feFlood>        <feComposite in="PINK" in2="DILATED" operator="in" result="OUTLINE"></feComposite>        <feMerge>            <feMergeNode in="OUTLINE"></feMergeNode>            <feMergeNode in="SourceGraphic"></feMergeNode>        </feMerge>            <feColorMatrix type="matrix" values="0   0   0   0   0                0   1   0   0   0                0   0   0   0   0                0   0   0   1   0 "></feColorMatrix>    </filter></defs></svg>